<?xml version="1.0" encoding="UTF-8"?>
<svg id="Layer_1" data-name="Layer 1" xmlns="http://www.w3.org/2000/svg" viewBox="0 0 316.362 47.06">
  <defs>
    <style>
      .cls-1 {
        fill: #fff;
        stroke: #231f20;
        stroke-miterlimit: 10;
        stroke-width: .75px;
      }
    </style>
  </defs>
  <path class="cls-1" d="m33.056,18.568c-.098.049-.245.049-.392.049-.344,0-.735-.098-1.029-.294C17.083,22.586,3.904,29.004,3.952,35.569c0,4.704,5.193,6.321,13.131,6.321,7.889,0,13.915-.589,17.345-1.127l.294,3.576c-4.508.588-11.809.882-17.541.882C7.48,45.221.424,42.968.375,35.765c-.049-5.242,5.194-9.849,12.886-13.816-1.665-2.989-2.253-8.672-2.253-19.746l5.389.441c-.049.637-.538,1.029-1.519,1.176-.049,8.575.245,13.915,1.617,16.561,4.605-2.156,9.897-4.116,15.286-5.88l1.274,4.067Zm-6.271-15.287c2.548,2.205,4.899,4.998,6.223,7.3l-2.107,1.421c-1.273-2.254-3.527-5.145-6.026-7.3l1.911-1.421Zm6.565-2.793c2.548,2.254,4.753,4.802,6.124,7.251l-2.009,1.372c-1.371-2.352-3.576-5.047-5.978-7.154l1.862-1.47Z"/>
  <path class="cls-1" d="m76.469,41.645c-4.312.783-9.995,1.127-14.895,1.127-4.116,0-7.692-.245-9.604-.638-5.929-1.322-8.476-5.046-8.476-9.357,0-3.773,2.106-7.546,4.997-10.485l2.842,1.47c-2.744,2.842-4.312,5.978-4.312,8.722,0,2.841,1.911,5.438,6.124,6.369,1.715.392,4.606.588,7.986.588,4.753,0,10.437-.392,15.091-1.323l.245,3.528Zm-21.999-24.743c2.548-1.96,6.026-4.36,8.672-5.684v-.049c-3.724.441-12.249.637-17.688.588,0-.931,0-2.548-.049-3.43,1.078.049,19.893.343,27.928-1.568l.393,3.626c-5.831.686-13.327,5.781-16.463,8.28l-2.793-1.764Z"/>
  <path class="cls-1" d="m82.794,7.789c3.675-.147,33.856-2.303,40.226-2.352l.049,3.675c-.637-.049-1.225-.049-1.812-.049-2.842,0-5.242.49-8.378,2.499-7.35,4.41-14.454,12.297-14.454,18.618,0,6.859,4.802,10.927,16.952,12.494l-1.616,3.43c-13.915-2.009-19.108-7.202-19.108-15.924,0-6.908,6.811-15.286,15.776-20.92-5.39.392-19.844,1.47-26.164,2.058-.146.392-.686.735-1.078.784l-.392-4.312Zm31.749,9.652c2.353,1.764,5.146,4.655,6.664,6.761l-1.862,1.52c-1.371-2.156-4.36-5.193-6.467-6.811l1.665-1.47Zm5.292-4.312c2.4,1.764,5.242,4.605,6.663,6.761l-1.861,1.47c-1.323-1.959-4.165-4.998-6.468-6.761l1.666-1.47Z"/>
  <path class="cls-1" d="m157.81,28.024c-3.136.343-7.595.588-11.71.588-.147,1.715-.294,3.626-.294,4.557,0,7.839,5.193,8.477,9.75,8.477,7.692,0,11.515-2.205,11.515-6.713,0-2.548-1.372-5.732-4.019-9.016.932-.294,2.353-.832,3.136-1.225,2.989,3.871,4.508,7.595,4.508,10.779,0,8.231-9.211,9.456-15.14,9.456-4.703,0-13.131-.343-13.131-11.759,0-2.205.196-3.821.294-4.654-4.115-.147-10.729-.393-10.729-5.438,0-2.205,1.273-4.263,4.164-6.321l2.597,1.519c-2.155,1.323-3.43,2.939-3.43,4.263,0,2.597,3.92,2.694,7.644,2.792.343-3.282.784-7.153,1.225-10.975-3.527-.392-7.594-1.372-10.289-2.695l.882-3.185c2.695,1.274,6.125,2.205,9.8,2.646.392-3.087.734-6.223,1.077-8.819l5.096.637c-.146.588-.686.931-1.567.98-.343,2.058-.735,4.752-1.127,7.545,1.421.098,2.939.147,4.508.147,1.861,0,3.772-.049,5.536-.196l-.146,3.233c-1.471.098-3.136.147-4.802.147-1.911,0-3.822-.049-5.537-.147-.489,3.675-.931,7.448-1.273,10.779,3.87,0,8.183-.245,11.416-.687l.049,3.283Z"/>
  <path class="cls-1" d="m190.838,20.871l2.303,1.176c-.049.196-.294.392-.539.49-2.597,9.554-8.28,16.903-14.699,20.97-.539-.686-1.812-1.96-2.597-2.449,5.684-3.332,10.73-9.31,13.278-16.855h-12.249v-3.184h13.915l.588-.147Zm9.211-6.467c1.127,4.018,2.646,7.79,4.557,11.17,4.018-2.988,8.917-7.349,11.955-10.779l3.527,2.646c-.245.294-.734.343-1.176.294-3.282,3.136-8.574,7.496-12.788,10.387,3.773,5.635,8.771,9.995,15.091,12.396-.734.686-1.764,1.96-2.303,2.891-8.721-3.724-14.846-10.828-18.863-20.187v19.206c0,2.107-.49,3.087-1.96,3.626-1.519.539-4.115.588-8.231.588-.146-.931-.686-2.303-1.176-3.233,3.136.098,6.026.098,6.859.098.882-.049,1.176-.294,1.176-1.127V14.942h-14.013v-3.185h17.345v2.646Zm-11.122-13.376c6.124,1.47,14.258,4.213,18.472,6.467l-1.617,3.381c-4.115-2.303-12.151-5.292-18.423-6.909l1.568-2.939Z"/>
  <path class="cls-1" d="m234.497,20.773v16.12c3.821,5.83,10.975,5.83,20.187,5.83,5.39,0,11.661-.098,15.482-.343-.392.735-.931,2.254-1.029,3.233-3.38.099-8.77.196-13.62.196-10.779,0-17.541,0-22.392-6.075-2.254,2.205-4.557,4.36-6.468,6.026.05.392-.049.588-.392.784l-1.911-3.479c2.107-1.568,4.655-3.724,6.958-5.831v-13.327h-6.468v-3.135h9.652Zm-6.565-18.374c3.087,2.303,6.565,5.733,8.084,8.183l-2.694,2.058c-1.421-2.499-4.851-6.026-7.938-8.427l2.548-1.813Zm23.175,38.119v-9.8c-3.43,2.989-8.035,5.488-12.396,7.153-.393-.588-1.274-1.812-1.813-2.4,4.802-1.666,10.045-4.508,13.376-7.986h-8.917v-10.289h23.273v10.289h-9.8l.147.049c-.099.196-.294.343-.637.393,1.126,1.616,2.547,3.086,4.262,4.458,2.45-1.47,5.488-3.675,7.252-5.242l2.988,1.91c-.195.295-.637.344-.979.295-1.862,1.322-4.753,3.136-7.153,4.458,2.548,1.617,5.438,2.891,8.477,3.626-.687.588-1.568,1.715-2.009,2.548-4.949-1.47-9.604-4.36-12.936-8.035v8.574h-3.136Zm17.981-28.712v2.597h-32.043v-2.597h14.16v-3.772h-11.417v-2.597h11.417V1.223l4.164.245c-.049.343-.294.588-.979.686v3.283h11.661v2.597h-11.661v3.772h14.698Zm-24.645,7.742v5.537h16.952v-5.537h-16.952Z"/>
  <path class="cls-1" d="m284.722,4.8c-.146.539-.637.833-1.616.784-1.715,7.986-2.598,16.756-2.598,22.047,0,3.675.147,7.398.638,9.702.931-2.401,3.037-7.546,3.724-9.261l2.058,2.156c-2.009,4.948-3.479,7.741-4.165,9.945-.245.833-.392,1.617-.392,2.304,0,.538.098,1.028.245,1.519l-3.479.637c-1.568-4.654-2.156-10.338-2.156-16.854,0-6.418,1.029-15.384,2.597-23.861l5.145.882Zm31.211,35.816c-1.764.098-3.577.147-5.39.147-3.479,0-6.762-.196-9.113-.539-6.026-.882-8.819-4.214-8.819-8.134,0-3.381,1.861-6.223,4.605-9.456l3.185,1.372c-2.449,2.548-4.164,4.899-4.164,7.692,0,5.684,8.329,5.684,13.425,5.684,2.058,0,4.263-.099,6.32-.245l-.049,3.479Zm-22.686-29.936c6.32-.147,14.846-.735,21.362-1.862l.294,3.43c-6.075,1.029-15.924,1.666-21.559,1.812l-.098-3.38Z"/>
</svg>