<?xml version="1.0" encoding="UTF-8"?>
<svg id="Layer_1" data-name="Layer 1" xmlns="http://www.w3.org/2000/svg" xmlns:xlink="http://www.w3.org/1999/xlink" viewBox="0 0 216.74 70.83">
  <defs>
    <style>
      .cls-1 {
        fill: url(#linear-gradient-2);
      }

      .cls-1, .cls-2, .cls-3, .cls-4, .cls-5, .cls-6, .cls-7 {
        stroke: #6a9772;
        stroke-miterlimit: 10;
        stroke-width: 3px;
      }

      .cls-2 {
        fill: url(#linear-gradient);
      }

      .cls-3 {
        fill: url(#linear-gradient-6);
      }

      .cls-4 {
        fill: url(#linear-gradient-4);
      }

      .cls-5 {
        fill: url(#linear-gradient-5);
      }

      .cls-6 {
        fill: url(#linear-gradient-7);
      }

      .cls-7 {
        fill: url(#linear-gradient-3);
      }
    </style>
    <linearGradient id="linear-gradient" x1="26.604" y1="67.61" x2="26.954" y2="15.75" gradientTransform="translate(0 71.89) scale(1 -1)" gradientUnits="userSpaceOnUse">
      <stop offset=".3" stop-color="#fff"/>
      <stop offset=".64" stop-color="#f2f8ed"/>
      <stop offset="1" stop-color="#e8f3df"/>
    </linearGradient>
    <linearGradient id="linear-gradient-2" x1="63.405" y1="66.4" x2="63.525" y2="15.68" gradientTransform="translate(0 71.89) scale(1 -1)" gradientUnits="userSpaceOnUse">
      <stop offset=".22" stop-color="#fff"/>
      <stop offset="1" stop-color="#e8f3df"/>
    </linearGradient>
    <linearGradient id="linear-gradient-3" x1="79.581" y1="69.32" x2="79.891" y2="16.868" gradientTransform="translate(0 71.89) scale(1 -1)" gradientUnits="userSpaceOnUse">
      <stop offset=".24" stop-color="#fff"/>
      <stop offset="1" stop-color="#e8f3df"/>
    </linearGradient>
    <linearGradient id="linear-gradient-4" x1="95.835" y1="67.96" x2="95.885" y2="17.17" gradientTransform="translate(0 71.89) scale(1 -1)" gradientUnits="userSpaceOnUse">
      <stop offset=".25" stop-color="#fff"/>
      <stop offset="1" stop-color="#e8f3df"/>
    </linearGradient>
    <linearGradient id="linear-gradient-5" x1="122.946" y1="51.81" x2="123.116" y2="17.09" gradientTransform="translate(0 71.89) scale(1 -1)" gradientUnits="userSpaceOnUse">
      <stop offset="0" stop-color="#fff"/>
      <stop offset="1" stop-color="#e8f3df"/>
    </linearGradient>
    <linearGradient id="linear-gradient-6" x1="161.129" y1="68.4" x2="161.459" y2="17.66" gradientTransform="translate(0 71.89) scale(1 -1)" gradientUnits="userSpaceOnUse">
      <stop offset=".26" stop-color="#fff"/>
      <stop offset="1" stop-color="#e8f3df"/>
    </linearGradient>
    <linearGradient id="linear-gradient-7" x1="199.484" y1="54.34" x2="199.604" y2="3.26" gradientTransform="translate(0 71.89) scale(1 -1)" gradientUnits="userSpaceOnUse">
      <stop offset=".03" stop-color="#fff"/>
      <stop offset=".84" stop-color="#e8f3df"/>
    </linearGradient>
  </defs>
  <path class="cls-2" d="m2.2,55.14c-.38,0-.7-.31-.7-.7V13.6c0-2.83.86-5.12,2.59-6.88,1.73-1.75,4.01-2.63,6.84-2.63.96,0,1.92.1,2.88.29,3.46.72,5.57,2.83,6.34,6.34l5.69,26.15c.16.72,1.18.73,1.35.01l6.29-26.16c.86-3.51,2.95-5.62,6.26-6.34.91-.19,1.89-.29,2.95-.29,2.83,0,5.1.88,6.83,2.63s2.59,4.04,2.59,6.88v40.85c0,.38-.31.7-.7.7h-8.91c-.38,0-.7-.31-.7-.7v-29.91c0-.82-1.16-.96-1.37-.17l-6.48,25.09c-.24,1.01-.62,2.04-1.15,3.1-1.2,2.5-3.22,3.74-6.05,3.74-3.65,0-6.05-2.28-7.2-6.84l-6.33-24.99c-.2-.79-1.37-.65-1.37.17v29.81c0,.38-.31.7-.7.7H2.2v-.01Z"/>
  <path class="cls-1" d="m57.44,7.69c-.1-1.73.44-3.19,1.62-4.39,1.18-1.2,2.63-1.8,4.36-1.8,1.63,0,3.04.59,4.21,1.76,1.18,1.18,1.76,2.58,1.76,4.21s-.59,3.1-1.76,4.25c-1.18,1.15-2.6,1.73-4.28,1.73s-3-.55-4.1-1.66c-1.1-1.1-1.7-2.47-1.8-4.1h-.01Zm1.22,42.66v-28.22c0-2.64,2.14-4.79,4.79-4.79h0c2.64,0,4.79,2.14,4.79,4.79v28.22c0,2.64-2.14,4.79-4.79,4.79h0c-2.64,0-4.79-2.14-4.79-4.79Z"/>
  <path class="cls-7" d="m73.64,7.69c-.1-1.73.44-3.19,1.62-4.39,1.18-1.2,2.63-1.8,4.36-1.8,1.63,0,3.04.59,4.21,1.76,1.18,1.18,1.76,2.58,1.76,4.21s-.59,3.1-1.76,4.25c-1.18,1.15-2.6,1.73-4.28,1.73s-3-.55-4.1-1.66c-1.1-1.1-1.822-2.692-1.8-4.1h-.01Zm1.22,42.66v-28.22c0-2.645,2.145-4.79,4.79-4.79h0c2.645,0,4.79,2.145,4.79,4.79v28.22c0,2.645-2.145,4.79-4.79,4.79h0c-2.645,0-4.79-2.145-4.79-4.79Z"/>
  <path class="cls-4" d="m91.07,55.14V3.23h9.58v51.91h-9.58Z"/>
  <path class="cls-5" d="m107.29,46.74c-.02-.11-.03-.22-.03-.33v-7.54c0-2.83.82-5.03,2.48-6.59,1.65-1.56,3.89-2.34,6.71-2.34h10.76c1.11,0,2.02-.9,2.02-2.02h0c-.05-.82-.72-1.32-2.03-1.51h-17.92c-1.11,0-2.02-.9-2.02-2.02v-5.04c0-1.11.9-2.02,2.02-2.02h19.94c.29,0,.83.05,1.64.14,4.48.53,7.07,2.88,7.79,7.06.09.58.14,1.13.14,1.66v20.09c0,.67-.05,1.25-.14,1.73-.43,2.16-1.42,3.89-2.95,5.18-1.54,1.3-3.38,1.94-5.54,1.94h-13.18c-5.47,0-8.65-2.2-9.53-6.61-.03-.15-.03-.31-.03-.46,0-.32-.04-.76-.13-1.33v.01Zm10.02-1.8c.028.121.675.562,1.48.84.14.05.31.07.5.07h7.49c1.63,0,2.45-.72,2.45-2.16v-2.66c0-.91-.41-1.56-1.22-1.94-.19-.19-.62-.29-1.3-.29h-8.42c-.82.15-1.3.78-1.44,1.89v2.98c0,.44.205.86.515,1.27h-.055Z"/>
  <path class="cls-3" d="m145.35,45.64v-20.45c.53-4.22,2.74-6.77,6.65-7.63.67-.14,1.3-.22,1.88-.22h13.72V3.23h9.58v41.76c0,3.12-.81,5.59-2.43,7.42-1.62,1.82-4,2.74-7.15,2.74h-13.56c-3.35,0-5.86-1.49-7.54-4.46-.77-1.34-1.15-3.02-1.15-5.04v-.01Zm22.25-16.43c-.29-1.48-1.13-2.21-2.52-2.21h-7.34c-1.49,0-2.4.74-2.74,2.21-.05.1-.07.24-.07.43v13.65c0,1.14.6,1.86,1.8,2.14.1.05.29.07.58.07h7.85c.29,0,.48-.02.58-.07,1.25-.19,1.87-.69,1.87-1.5v-14.54l-.01-.18Z"/>
  <path class="cls-6" d="m183.87,67.09v-5.18c0-1.23,1-2.23,2.23-2.23h16.86c.29,0,.48-.02.57-.07,1.24-.29,1.96-1.03,2.15-2.23h0c0-1.23-1-2.23-2.23-2.23h-10.01c-1.98,0-3.58-.3-4.79-.91-1.21-.6-2.37-1.73-3.48-3.37-.87-1.26-1.31-3.05-1.31-5.37v-25.92c0-1.23,1-2.23,2.23-2.23h5.11c1.23,0,2.23,1,2.23,2.23v22.97c0,2.02.86,3.02,2.58,3.02h6.73c.24,0,.43-.02.57-.07,1.34-.24,2.12-1.01,2.36-2.3v-23.62c0-1.23,1-2.23,2.23-2.23h5.11c1.23,0,2.23,1,2.23,2.23v39.44c0,.86-.05,1.51-.14,1.95-.72,5.58-3.67,8.36-8.86,8.36h-20.16c-1.23,0-2.23-1-2.23-2.23l.02-.01Z"/>
</svg>