<?xml version="1.0" encoding="UTF-8"?>
<svg id="Layer_1" data-name="Layer 1" xmlns="http://www.w3.org/2000/svg" xmlns:xlink="http://www.w3.org/1999/xlink" viewBox="0 0 223.766 76.824">
  <defs>
    <style>
      .cls-1 {
        fill: url(#linear-gradient-2);
      }

      .cls-2 {
        fill: #6a9772;
      }

      .cls-3 {
        fill: url(#linear-gradient-6);
      }

      .cls-4 {
        fill: url(#linear-gradient-5);
      }

      .cls-5 {
        fill: url(#linear-gradient-7);
      }

      .cls-6 {
        fill: url(#linear-gradient-3);
      }

      .cls-7 {
        fill: url(#linear-gradient);
      }

      .cls-8 {
        fill: url(#linear-gradient-4);
      }
    </style>
    <linearGradient id="linear-gradient" x1="30.094" y1="4.311" x2="30.472" y2="61.122" gradientUnits="userSpaceOnUse">
      <stop offset=".296" stop-color="#fff"/>
      <stop offset=".639" stop-color="#f2f8ed"/>
      <stop offset="1" stop-color="#e8f3df"/>
    </linearGradient>
    <linearGradient id="linear-gradient-2" x1="66.905" y1="6.292" x2="67.04" y2="60.795" gradientUnits="userSpaceOnUse">
      <stop offset=".222" stop-color="#fff"/>
      <stop offset="1" stop-color="#e8f3df"/>
    </linearGradient>
    <linearGradient id="linear-gradient-3" x1="83.074" y1="3.149" x2="83.404" y2="59.514" gradientUnits="userSpaceOnUse">
      <stop offset=".245" stop-color="#fff"/>
      <stop offset="1" stop-color="#e8f3df"/>
    </linearGradient>
    <linearGradient id="linear-gradient-4" x1="99.325" y1="4.482" x2="99.384" y2="59.19" gradientUnits="userSpaceOnUse">
      <stop offset=".249" stop-color="#fff"/>
      <stop offset="1" stop-color="#e8f3df"/>
    </linearGradient>
    <linearGradient id="linear-gradient-5" x1="126.444" y1="20.452" x2="126.635" y2="59.752" gradientUnits="userSpaceOnUse">
      <stop offset="0" stop-color="#fff"/>
      <stop offset="1" stop-color="#e8f3df"/>
    </linearGradient>
    <linearGradient id="linear-gradient-6" x1="164.625" y1="3.5" x2="164.979" y2="59.133" gradientUnits="userSpaceOnUse">
      <stop offset=".265" stop-color="#fff"/>
      <stop offset="1" stop-color="#e8f3df"/>
    </linearGradient>
    <linearGradient id="linear-gradient-7" x1="203.002" y1="17.569" x2="203.136" y2="73.566" gradientUnits="userSpaceOnUse">
      <stop offset=".031" stop-color="#fff"/>
      <stop offset=".842" stop-color="#e8f3df"/>
    </linearGradient>
  </defs>
  <g>
    <path class="cls-7" d="m30.272,61.292c-3.384,0-7.801-1.514-9.624-8.728l-2.78-10.963v15.344c0,1.762-1.433,3.195-3.195,3.195H5.695c-1.762,0-3.195-1.433-3.195-3.195V16.096c0-3.499,1.114-6.403,3.312-8.631,2.208-2.238,5.109-3.373,8.623-3.373,1.116,0,2.25.113,3.37.336,4.451.928,7.31,3.782,8.291,8.258l4.017,18.451,4.447-18.5c1.094-4.444,3.913-7.275,8.156-8.2,1.096-.23,2.261-.345,3.481-.345,3.508,0,6.406,1.135,8.612,3.373,2.196,2.23,3.309,5.134,3.309,8.631v40.849c0,1.762-1.433,3.195-3.195,3.195h-8.907c-1.762,0-3.195-1.433-3.195-3.195v-15.701l-2.927,11.333c-.273,1.147-.727,2.37-1.337,3.589-1.606,3.341-4.477,5.125-8.284,5.125Z"/>
    <path class="cls-2" d="m46.195,6.592c2.828,0,5.105.876,6.831,2.628,1.726,1.752,2.59,4.044,2.59,6.876v40.849c0,.384-.311.695-.695.695h-8.906c-.384,0-.695-.311-.695-.695v-29.906c0-.449-.352-.695-.702-.696-.287,0-.574.166-.666.522l-6.48,25.087c-.241,1.008-.624,2.041-1.152,3.096-1.2,2.496-3.216,3.744-6.048,3.744-3.648,0-6.048-2.279-7.2-6.84l-6.335-24.985c-.091-.358-.378-.525-.667-.525-.351,0-.702.246-.702.695v29.807c0,.384-.311.695-.695.695H5.695c-.384,0-.695-.311-.695-.695V16.096c0-2.832.864-5.124,2.592-6.876,1.728-1.751,4.01-2.628,6.842-2.628.961,0,1.92.097,2.881.288,3.456.721,5.569,2.835,6.337,6.341l5.693,26.148c.079.364.379.547.68.547.295,0,.59-.177.675-.533l6.289-26.163c.863-3.506,2.949-5.621,6.257-6.341.91-.191,1.894-.288,2.949-.288m0-5c-1.393,0-2.731.133-3.978.395-5.2,1.133-8.768,4.695-10.083,10.04l-1.902,7.912-1.694-7.781c-1.191-5.438-4.814-9.049-10.202-10.172-1.324-.264-2.623-.393-3.902-.393-4.148,0-7.745,1.423-10.402,4.116C1.394,8.384,0,11.976,0,16.096v40.849c0,3.14,2.555,5.695,5.695,5.695h8.978c2.732,0,5.02-1.933,5.57-4.503,3.076,5.008,7.802,5.655,10.029,5.655,4.464,0,8.035-2.049,10.146-5.793.496,2.639,2.817,4.641,5.597,4.641h8.906c3.14,0,5.695-2.555,5.695-5.695V16.096c0-4.118-1.393-7.709-4.027-10.384-2.657-2.696-6.25-4.12-10.394-4.12h0Z"/>
  </g>
  <g>
    <path class="cls-1" d="m66.956,59.64c-3.743,0-6.788-3.045-6.788-6.788v-28.224c0-3.411,2.529-6.243,5.811-6.718-1.804-.177-3.366-.916-4.65-2.202-1.455-1.453-2.257-3.271-2.382-5.4-.129-2.31.607-4.296,2.188-5.909,1.562-1.592,3.508-2.4,5.784-2.4,2.172,0,4.065.791,5.625,2.349,1.56,1.562,2.351,3.454,2.351,5.627,0,2.229-.795,4.14-2.365,5.677-1.32,1.292-2.894,2.045-4.689,2.245,3.326.436,5.902,3.288,5.902,6.73v28.224c0,3.743-3.045,6.788-6.788,6.788Z"/>
    <path class="cls-2" d="m66.919,4c1.631,0,3.035.588,4.212,1.764,1.176,1.177,1.764,2.581,1.764,4.212,0,1.681-.588,3.096-1.764,4.248-1.177,1.152-2.604,1.728-4.284,1.728-1.632,0-3-.551-4.104-1.656-1.105-1.104-1.705-2.471-1.8-4.104-.097-1.728.443-3.191,1.62-4.392,1.176-1.199,2.628-1.8,4.356-1.8m.036,15.84c2.644,0,4.788,2.144,4.788,4.788v28.224c0,2.644-2.144,4.788-4.788,4.788s-4.788-2.144-4.788-4.788v-28.224c0-2.644,2.144-4.788,4.788-4.788m-.036-19.84c-2.794,0-5.288,1.037-7.212,3-1.964,2.003-2.917,4.567-2.758,7.415.153,2.608,1.179,4.924,2.967,6.711.362.362.745.691,1.148.986-1.779,1.609-2.897,3.934-2.897,6.516v28.224c0,4.846,3.942,8.788,8.788,8.788s8.788-3.942,8.788-8.788v-28.224c0-2.612-1.146-4.962-2.962-6.574.4-.292.783-.616,1.147-.972,1.941-1.901,2.966-4.358,2.966-7.107,0-2.684-1.015-5.118-2.935-7.039-1.924-1.922-4.358-2.937-7.041-2.937h0Z"/>
  </g>
  <g>
    <path class="cls-6" d="m83.155,59.64c-3.743,0-6.788-3.045-6.788-6.788v-28.224c0-3.411,2.529-6.243,5.811-6.718-1.804-.177-3.366-.916-4.65-2.202-1.455-1.453-2.257-3.271-2.382-5.4-.129-2.31.607-4.296,2.188-5.909,1.562-1.592,3.508-2.4,5.784-2.4,2.172,0,4.065.791,5.625,2.349,1.56,1.562,2.351,3.454,2.351,5.627,0,2.229-.795,4.14-2.365,5.677-1.32,1.292-2.894,2.045-4.689,2.245,3.326.436,5.902,3.288,5.902,6.73v28.224c0,3.743-3.045,6.788-6.788,6.788Z"/>
    <path class="cls-2" d="m83.119,4c1.631,0,3.035.588,4.212,1.764,1.176,1.177,1.764,2.581,1.764,4.212,0,1.681-.588,3.096-1.764,4.248-1.177,1.152-2.604,1.728-4.284,1.728-1.632,0-3-.551-4.104-1.656-1.105-1.104-1.705-2.471-1.8-4.104-.097-1.728.443-3.191,1.62-4.392,1.176-1.199,2.628-1.8,4.356-1.8m.036,15.84c2.644,0,4.788,2.144,4.788,4.788v28.224c0,2.644-2.144,4.788-4.788,4.788s-4.788-2.144-4.788-4.788v-28.224c0-2.644,2.144-4.788,4.788-4.788m-.036-19.84c-2.794,0-5.288,1.037-7.212,3-1.964,2.003-2.917,4.567-2.758,7.415.153,2.608,1.179,4.924,2.967,6.711.362.362.745.691,1.148.986-1.779,1.609-2.897,3.934-2.897,6.516v28.224c0,4.846,3.942,8.788,8.788,8.788s8.788-3.942,8.788-8.788v-28.224c0-2.612-1.146-4.962-2.961-6.574.4-.292.783-.616,1.147-.972,1.941-1.901,2.966-4.358,2.966-7.107,0-2.684-1.015-5.118-2.935-7.039-1.924-1.922-4.358-2.937-7.042-2.937h0Z"/>
  </g>
  <g>
    <rect class="cls-8" x="92.566" y="3.728" width="13.576" height="55.912"/>
    <path class="cls-2" d="m104.142,5.728v51.912h-9.576V5.728h9.576m4-4h-17.576v59.912h17.576V1.728h0Z"/>
  </g>
  <g>
    <path class="cls-4" d="m120.485,60.14c-8.48,0-11.198-4.687-11.984-8.619-.077-.388-.081-.726-.074-1.007,0-.038,0-.269-.099-.864-.04-.236-.063-.495-.063-.74v-7.542c0-3.534,1.097-6.362,3.259-8.405.644-.608,1.353-1.125,2.125-1.551h-.868c-2.49,0-4.516-2.026-4.516-4.516v-5.041c0-2.49,2.026-4.516,4.516-4.516h19.944c.267,0,.728.019,1.938.161,5.606.662,9.051,3.814,9.96,9.116.119.726.179,1.419.179,2.079v20.088c0,.845-.062,1.57-.192,2.217-.543,2.718-1.818,4.94-3.791,6.605-1.994,1.681-4.401,2.533-7.156,2.533h-13.176Zm9.74-14.288v-2.056h-7.384v2.045l.05.011h7.334Z"/>
    <path class="cls-2" d="m132.725,19.84c.286,0,.834.048,1.644.144,4.478.528,7.074,2.88,7.79,7.056.095.576.143,1.128.143,1.656v20.088c0,.673-.048,1.249-.144,1.728-.432,2.16-1.416,3.888-2.952,5.184-1.537,1.296-3.384,1.944-5.544,1.944h-13.176c-5.474,0-8.651-2.202-9.533-6.609-.03-.15-.03-.308-.027-.461.007-.315-.037-.759-.132-1.331-.018-.107-.029-.221-.029-.33v-7.542c0-2.832.825-5.028,2.476-6.588,1.65-1.56,3.887-2.34,6.709-2.34h10.759c1.113,0,2.016-.902,2.016-2.016-.048-.816-.725-1.32-2.029-1.512h-17.915c-1.113,0-2.016-.902-2.016-2.016v-5.041c0-1.113.902-2.016,2.016-2.016h19.944m-9.936,28.512h7.488c1.631,0,2.448-.72,2.448-2.16v-2.664c0-.912-.408-1.56-1.224-1.944-.192-.191-.624-.288-1.296-.288h-8.424c-.817.146-1.296.776-1.44,1.892v2.982c0,.437.155.862.468,1.274.312.412.803.69,1.476.835.144.05.312.073.504.073m9.936-33.512h-19.944c-3.868,0-7.016,3.147-7.016,7.016v5.041c0,2.29,1.103,4.328,2.806,5.609-1.465,1.88-2.806,4.729-2.806,8.862v7.542c0,.38.033.768.097,1.153.045.27.06.414.064.468-.006.386.006.892.124,1.481,1.35,6.755,6.612,10.629,14.435,10.629h13.176c3.361,0,6.31-1.05,8.767-3.121,2.418-2.04,3.976-4.741,4.632-8.027.162-.811.24-1.696.24-2.708v-20.088c0-.794-.07-1.625-.209-2.467-1.089-6.354-5.511-10.428-12.138-11.21-1.058-.125-1.725-.178-2.229-.178h0Z"/>
  </g>
  <g>
    <path class="cls-3" d="m157.538,60.14c-4.244,0-7.604-1.984-9.714-5.738-.973-1.704-1.47-3.816-1.47-6.266v-20.604l.02-.155c.661-5.29,3.631-8.666,8.586-9.762.858-.184,1.666-.275,2.418-.275h11.225V3.228h14.576v44.26c0,3.736-1.03,6.79-3.062,9.076-2.106,2.373-5.14,3.576-9.015,3.576h-13.564Zm11.028-14.648l.036-.005s0-13.497,0-13.499h-7.363c-.104,0-.175.008-.22.016-.021.047-.05.128-.079.254l-.009.04v13.193h7.636Z"/>
    <path class="cls-2" d="m180.678,5.728v41.76c0,3.121-.811,5.592-2.431,7.416-1.62,1.825-4.003,2.736-7.146,2.736h-13.564c-3.351,0-5.861-1.487-7.535-4.464-.767-1.343-1.148-3.024-1.148-5.04v-20.448c.528-4.223,2.743-6.768,6.646-7.632.674-.144,1.3-.216,1.878-.216h13.725V5.728h9.576m-19.872,42.264h7.848c.288,0,.479-.023.576-.072,1.247-.19,1.872-.689,1.872-1.5v-14.717c-.288-1.476-1.129-2.215-2.521-2.215h-7.344c-1.488,0-2.4.739-2.736,2.215-.048.096-.071.239-.071.429v13.645c0,1.143.6,1.857,1.8,2.143.096.049.288.072.576.072M185.678.728h-19.576v14.112h-8.725c-.927,0-1.91.11-2.923.326-6.03,1.335-9.768,5.558-10.561,11.901l-.039.309v20.76c0,2.889.608,5.419,1.806,7.518,2.528,4.495,6.751,6.986,11.878,6.986h13.564c5.755,0,9.096-2.401,10.884-4.416,2.449-2.757,3.692-6.37,3.692-10.736V.728h0Zm-22.248,33.76h2.672v8.504h-2.672v-8.504h0Z"/>
  </g>
  <g>
    <path class="cls-5" d="m189.605,74.324c-2.609,0-4.731-2.123-4.731-4.732v-5.184c0-2.609,2.122-4.732,4.731-4.732h3.329c-.684-.182-1.312-.417-1.892-.708-1.614-.807-3.065-2.183-4.434-4.208-1.162-1.678-1.735-3.9-1.735-6.769v-25.92c0-2.609,2.122-4.732,4.731-4.732h5.113c2.609,0,4.731,2.123,4.731,4.732v22.968c0,.243.02.412.039.523.013,0,6.719,0,6.719,0l.179-.032c.172-.031.264-.072.291-.089,0-.002.005-.015.013-.041v-23.33c0-2.609,2.122-4.732,4.731-4.732h5.113c2.609,0,4.731,2.123,4.731,4.732v39.441c0,1.001-.057,1.758-.178,2.367-.904,6.736-4.922,10.444-11.322,10.444h-20.161Z"/>
    <path class="cls-2" d="m216.534,19.84c1.233,0,2.232.999,2.232,2.232v39.441c0,.865-.049,1.514-.145,1.947-.72,5.576-3.672,8.363-8.855,8.363h-20.161c-1.233,0-2.232-.999-2.232-2.232v-5.184c0-1.233.999-2.232,2.232-2.232h16.858c.286,0,.478-.025.573-.072,1.244-.288,1.962-1.033,2.153-2.232,0-1.233-.999-2.232-2.232-2.232h-10.008c-1.983,0-3.579-.301-4.788-.907-1.209-.604-2.37-1.728-3.481-3.373-.871-1.258-1.307-3.047-1.307-5.369v-25.92c0-1.233.999-2.232,2.232-2.232h5.112c1.233,0,2.232.999,2.232,2.232v22.968c0,2.016.858,3.024,2.578,3.024h6.728c.238,0,.428-.023.572-.072,1.336-.24,2.124-1.008,2.362-2.304v-23.616c0-1.233.999-2.232,2.232-2.232h5.112m0-5h-5.112c-3.988,0-7.232,3.244-7.232,7.232v20.992h-2.24v-20.992c0-3.988-3.244-7.232-7.232-7.232h-5.112c-3.988,0-7.232,3.244-7.232,7.232v25.92c0,3.333.733,6.088,2.178,8.188.482.711.976,1.356,1.487,1.938-2.186,1.245-3.664,3.598-3.664,6.289v5.184c0,3.988,3.244,7.232,7.232,7.232h20.161c7.676,0,12.693-4.567,13.79-12.538.143-.756.21-1.646.21-2.773V22.072c0-3.988-3.244-7.232-7.232-7.232h0Z"/>
  </g>
</svg>