<?xml version="1.0" encoding="UTF-8"?>
<svg id="Layer_1" data-name="Layer 1" xmlns="http://www.w3.org/2000/svg" xmlns:xlink="http://www.w3.org/1999/xlink" viewBox="0 0 458.125 122.33">
  <defs>
    <style>
      .cls-1 {
        fill: url(#linear-gradient-2);
      }

      .cls-2 {
        fill: #6a9772;
      }

      .cls-3 {
        fill: url(#linear-gradient-6);
      }

      .cls-4 {
        fill: url(#linear-gradient-5);
      }

      .cls-5 {
        fill: url(#linear-gradient-7);
      }

      .cls-6 {
        fill: url(#linear-gradient-3);
      }

      .cls-7 {
        fill: url(#linear-gradient);
      }

      .cls-8 {
        fill: url(#linear-gradient-4);
      }

      .cls-9 {
        fill: url(#linear-gradient-8);
      }
    </style>
    <linearGradient id="linear-gradient" x1="48.11" y1="6.192" x2="46.951" y2="98.85" gradientUnits="userSpaceOnUse">
      <stop offset="0" stop-color="#fff"/>
      <stop offset="1" stop-color="#e8f3df"/>
    </linearGradient>
    <linearGradient id="linear-gradient-2" x1="105.964" y1="5.676" x2="105.326" y2="99.095" gradientUnits="userSpaceOnUse">
      <stop offset="0" stop-color="#fff"/>
      <stop offset="1" stop-color="#e8f3df"/>
    </linearGradient>
    <linearGradient id="linear-gradient-3" x1="131.628" y1="5.378" x2="132.046" y2="99.995" gradientUnits="userSpaceOnUse">
      <stop offset="0" stop-color="#fff"/>
      <stop offset="1" stop-color="#e8f3df"/>
    </linearGradient>
    <linearGradient id="linear-gradient-4" x1="174.998" y1=".868" x2="175.39" y2="100.621" gradientUnits="userSpaceOnUse">
      <stop offset="0" stop-color="#fff"/>
      <stop offset="1" stop-color="#e8f3df"/>
    </linearGradient>
    <linearGradient id="linear-gradient-5" x1="237.089" y1="4.838" x2="235.749" y2="100.431" gradientUnits="userSpaceOnUse">
      <stop offset="0" stop-color="#fff"/>
      <stop offset="1" stop-color="#e8f3df"/>
    </linearGradient>
    <linearGradient id="linear-gradient-6" x1="297.555" y1="3.967" x2="297.418" y2="121.72" gradientUnits="userSpaceOnUse">
      <stop offset="0" stop-color="#fff"/>
      <stop offset="1" stop-color="#e8f3df"/>
    </linearGradient>
    <linearGradient id="linear-gradient-7" x1="361.918" y1="4.356" x2="361.152" y2="102.291" gradientUnits="userSpaceOnUse">
      <stop offset="0" stop-color="#fff"/>
      <stop offset="1" stop-color="#e8f3df"/>
    </linearGradient>
    <linearGradient id="linear-gradient-8" x1="425.49" y1="5.665" x2="425.121" y2="99.532" gradientUnits="userSpaceOnUse">
      <stop offset="0" stop-color="#fff"/>
      <stop offset="1" stop-color="#e8f3df"/>
    </linearGradient>
  </defs>
  <g>
    <path class="cls-7" d="m47.365,98.015c-5.23,0-12.061-2.354-14.894-13.568l-5.411-21.343v33.07H3.5V26.32c0-5.454,1.732-9.976,5.148-13.44,3.43-3.477,7.945-5.24,13.42-5.24,1.748,0,3.525.177,5.285.527,6.901,1.44,11.336,5.868,12.858,12.813l6.874,31.573,7.607-31.642c1.697-6.901,6.071-11.297,12.652-12.731,1.716-.36,3.542-.54,5.455-.54,5.468,0,9.978,1.764,13.404,5.241,3.413,3.466,5.143,7.987,5.143,13.439v69.854h-23.445v-33.569l-5.646,21.86c-.43,1.804-1.141,3.721-2.098,5.635-2.481,5.161-6.912,7.915-12.791,7.915Z"/>
    <path class="cls-2" d="m72.798,11.14c4.518,0,8.154,1.4,10.911,4.198,2.756,2.799,4.136,6.459,4.136,10.982v66.355h-16.445v-57.615l-12.535,48.53c-.384,1.61-.997,3.259-1.84,4.945-1.917,3.987-5.137,5.98-9.66,5.98-5.827,0-9.66-3.641-11.5-10.925l-12.305-48.53v57.615H7V26.32c0-4.523,1.38-8.183,4.14-10.982,2.76-2.798,6.404-4.198,10.928-4.198,1.535,0,3.067.155,4.602.46,5.52,1.152,8.895,4.528,10.122,10.129l10.124,46.501,11.179-46.501c1.378-5.601,4.709-8.978,9.994-10.129,1.454-.305,3.024-.46,4.709-.46m0-7c-2.154,0-4.222.205-6.148.609l-.026.006-.026.006c-7.862,1.714-13.296,7.146-15.301,15.297l-4.043,16.819-3.622-16.636c-1.814-8.282-7.33-13.781-15.531-15.493l-.032-.007-.032-.006c-1.983-.394-3.991-.594-5.967-.594-6.356,0-11.858,2.172-15.912,6.282C2.071,14.565,0,19.914,0,26.32v73.355h30.56v-9.879c4.237,10.08,12.127,11.719,16.805,11.719,7.194,0,12.855-3.514,15.944-9.896.403-.808.767-1.619,1.091-2.428v10.484h30.445V26.32c0-6.403-2.069-11.75-6.148-15.894-4.052-4.113-9.549-6.286-15.899-6.286h0Z"/>
  </g>
  <g>
    <path class="cls-1" d="m94.809,96.174V28.8h6.377c-1.644-.61-3.126-1.572-4.433-2.881-2.378-2.376-3.689-5.345-3.893-8.824-.208-3.727,1.031-7.067,3.582-9.669,2.553-2.604,5.735-3.925,9.457-3.925,3.555,0,6.65,1.292,9.202,3.841,2.551,2.553,3.843,5.649,3.843,9.204,0,3.646-1.301,6.77-3.868,9.285-1.383,1.354-2.936,2.346-4.646,2.97h6.674v67.375h-22.295Z"/>
    <path class="cls-2" d="m105.899,7c2.605,0,4.848.939,6.728,2.817,1.878,1.879,2.817,4.122,2.817,6.728,0,2.685-.939,4.945-2.817,6.785-1.879,1.84-4.16,2.76-6.842,2.76-2.607,0-4.792-.88-6.555-2.645-1.765-1.763-2.722-3.948-2.875-6.555-.154-2.76.708-5.098,2.587-7.015,1.878-1.916,4.198-2.875,6.957-2.875m7.705,25.3v60.375h-15.295v-60.375h15.295M105.899,0c-4.631,0-8.766,1.72-11.956,4.975-3.259,3.324-4.842,7.58-4.578,12.306.172,2.937,1.014,5.652,2.467,8.019h-.523v74.375h29.295V25.3h-.625c1.622-2.577,2.465-5.546,2.465-8.755,0-4.452-1.683-8.49-4.866-11.675-3.19-3.187-7.227-4.87-11.679-4.87h0Z"/>
  </g>
  <g>
    <rect class="cls-6" x="120.683" y="6.26" width="22.295" height="89.916"/>
    <path class="cls-2" d="m139.478,9.76v82.915h-15.295V9.76h15.295m7-7h-29.295v96.915h29.295V2.76h0Z"/>
  </g>
  <g>
    <path class="cls-8" d="m165.582,96.175c-13.448,0-17.614-7.51-18.74-13.809l-.099-.551.078-.554s0,.002,0,.002c-.004,0,.005-.442-.21-1.667l-.053-.301v-12.611c0-5.503,1.7-9.899,5.051-13.066,1.522-1.438,3.283-2.549,5.27-3.328h-10.321v-21.49h38.575c.412,0,1.128.029,3.036.254,8.717,1.03,14.071,5.925,15.48,14.155.187,1.131.279,2.212.279,3.236v32.085c0,1.316-.098,2.444-.299,3.448-.845,4.228-2.827,7.683-5.89,10.267-3.092,2.608-6.83,3.931-11.111,3.931h-21.045Zm15.64-21.835c.167,0,.303-.008.41-.019v-4.15l-.196-.093c-.083-.005-.192-.008-.329-.008h-12.255v4.131c.063.026.172.064.343.101l.176.038h11.851Z"/>
    <path class="cls-2" d="m185.132,32.3c.456,0,1.331.077,2.625.23,7.151.845,11.299,4.6,12.441,11.27.151.92.229,1.802.229,2.645v32.085c0,1.075-.077,1.995-.23,2.76-.689,3.45-2.262,6.21-4.715,8.28-2.454,2.07-5.405,3.105-8.854,3.105h-21.045c-8.895,0-13.992-3.641-15.295-10.925.076-.536,0-1.456-.23-2.76v-12.305c0-4.522,1.317-8.03,3.955-10.522,2.636-2.49,6.208-3.737,10.716-3.737h20.404v-3.22c-.077-1.303-1.157-2.107-3.242-2.415h-31.833v-14.49h35.075m-15.87,45.54h11.96c2.605,0,3.91-1.15,3.91-3.45v-4.255c0-1.456-.652-2.49-1.955-3.105-.308-.306-.997-.46-2.07-.46h-13.455c-1.304.233-2.07,1.24-2.3,3.021v4.764c0,.697.248,1.376.748,2.034.498.658,1.283,1.104,2.357,1.335.23.079.498.117.805.117m15.87-52.54h-42.075v28.49h3.769c-2.503,3.486-3.769,7.807-3.769,12.895v12.917l.106.603c.084.478.122.778.139.944l-.103.731.197,1.103c1.897,10.608,9.984,16.692,22.186,16.692h21.045c5.13,0,9.627-1.599,13.368-4.754,3.685-3.109,6.062-7.233,7.066-12.259.246-1.23.366-2.582.366-4.132v-32.085c0-1.213-.108-2.485-.321-3.781-1.682-9.821-8.259-15.872-18.527-17.085-1.652-.195-2.682-.278-3.446-.278h0Z"/>
  </g>
  <g>
    <path class="cls-4" d="m224.761,96.175c-6.589,0-11.806-3.083-15.085-8.915-1.512-2.652-2.284-5.943-2.284-9.766v-32.878l.027-.217c1.029-8.223,5.639-13.469,13.33-15.172,1.336-.286,2.592-.428,3.757-.428h18.42V6.26h22.295v70.2c0,5.843-1.603,10.61-4.764,14.169-3.268,3.68-7.988,5.546-14.031,5.546h-21.665Zm17.656-22.411s.503-.077.509-.078v-22.046c-.062-.226-.127-.356-.162-.411-.002,0-.006.001-.011.001-.037,0-.154-.021-.353-.021h-11.729c-.699,0-.772,0-.957.813l-.028.125v21.546c.051.016.268.071.268.071h12.464Z"/>
    <path class="cls-2" d="m261.721,9.76v66.7c0,4.984-1.294,8.932-3.881,11.845-2.588,2.915-6.394,4.37-11.414,4.37h-21.665c-5.35,0-9.361-2.375-12.035-7.13-1.224-2.146-1.835-4.83-1.835-8.05v-32.66c.845-6.746,4.383-10.81,10.614-12.19,1.076-.23,2.077-.345,3-.345h21.92V9.76h15.295m-31.74,67.505h12.535c.46,0,.766-.038.92-.115,1.993-.304,2.99-1.102,2.99-2.396v-23.506c-.46-2.358-1.802-3.538-4.025-3.538h-11.729c-2.377,0-3.835,1.18-4.37,3.538-.077.152-.115.381-.115.685v21.794c0,1.826.958,2.967,2.875,3.423.153.077.46.115.92.115M268.721,2.76h-29.295v22.54h-14.92c-1.411,0-2.912.168-4.464.5l-.025.005-.025.006c-9.135,2.023-14.834,8.47-16.047,18.155l-.054.433v33.096c0,4.438.927,8.314,2.754,11.518,3.916,6.962,10.187,10.662,18.115,10.662h21.665c7.086,0,12.688-2.262,16.648-6.722,3.746-4.218,5.646-9.767,5.646-16.492V2.76h0Zm-35.535,51.95h6.24v15.555h-6.24v-15.555h0Z"/>
  </g>
  <g>
    <path class="cls-3" d="m268.916,118.83v-22.409h34.008l.108-.025c.304-.07.477-.134.581-.221h-15.902c-3.758,0-6.772-.595-9.215-1.818-2.5-1.249-4.757-3.394-6.894-6.557-1.801-2.6-2.687-6.057-2.687-10.535V28.8h22.295v43.75c0,.712.101,1.12.168,1.291.079.018.223.04.448.04h10.743l.042-.014.257-.046c.638-.115.798-.247.892-.596V28.8h22.295v70.062c0,1.554-.091,2.766-.276,3.696-1.403,10.495-7.648,16.271-17.599,16.271h-39.265Z"/>
    <path class="cls-2" d="m322.555,32.3v66.562c0,1.382-.077,2.419-.229,3.11-1.15,8.905-5.865,13.357-14.146,13.357h-35.765v-15.409h30.489c.458,0,.764-.04.916-.115,1.988-.46,3.134-1.649,3.439-3.565v-3.565h-19.55c-3.168,0-5.718-.481-7.647-1.448-1.932-.965-3.786-2.76-5.562-5.387-1.391-2.009-2.086-4.866-2.086-8.575v-44.965h15.295v40.25c0,3.22,1.371,4.83,4.116,4.83h10.746c.381,0,.685-.038.914-.115,2.135-.383,3.393-1.61,3.773-3.68v-41.285h15.295m7-7h-29.295v45.08h-5.55V25.3h-29.295v51.965c0,5.122,1.112,9.335,3.306,12.523.783,1.157,1.587,2.199,2.417,3.133h-5.723v29.409h42.765c11.72,0,19.381-6.994,21.053-19.2.219-1.148.322-2.517.322-4.268V25.3h0Z"/>
  </g>
  <g>
    <path class="cls-5" d="m351.306,96.175c-6.066,0-10.586-1.07-13.815-3.271-3.726-2.66-6.133-6.947-7.22-12.787-.351-1.931-.52-3.499-.52-4.808V29.54c0-1.527.177-3.188.525-4.939,1.188-5.67,3.677-9.84,7.406-12.427,3.336-2.321,7.946-3.499,13.7-3.499h20.429c13.877,0,21.52,7.41,21.52,20.865v45.77c0,13.455-7.696,20.866-21.67,20.866h-20.355Zm2.876-62.947c-.075.272-.181.832-.181,1.832v34.73c0,1.5.109,2.02,2.25,2.02h10.58c1.188,0,1.835-.131,2.142-.223.05-.214.108-.599.108-1.222v-35.305c0-1.083-.152-1.595-.225-1.777-.159-.053-.755-.243-2.087-.243h-10.691c-1.04,0-1.618.11-1.896.188Z"/>
    <path class="cls-2" d="m371.812,12.175c12.013,0,18.02,5.79,18.02,17.365v45.77c0,11.578-6.058,17.365-18.17,17.365h-20.355c-5.29,0-9.239-.888-11.845-2.663-2.915-2.083-4.83-5.594-5.75-10.535-.308-1.696-.46-3.085-.46-4.167V29.54c0-1.303.152-2.721.458-4.255.995-4.752,2.984-8.165,5.969-10.235,2.753-1.916,6.656-2.875,11.705-2.875h20.429m-15.561,63.135h10.58c2.069,0,3.545-.325,4.427-.977.881-.651,1.323-1.973,1.323-3.968v-35.305c0-2.07-.428-3.507-1.279-4.312-.853-.805-2.363-1.207-4.532-1.207h-10.691c-2.171,0-3.643.384-4.417,1.15-.774.767-1.16,2.225-1.16,4.37v34.73c0,3.68,1.915,5.52,5.75,5.52m15.561-70.135h-20.429c-6.482,0-11.766,1.389-15.703,4.129-4.481,3.108-7.452,8.004-8.822,14.546l-.007.034-.007.034c-.393,1.975-.593,3.867-.593,5.623v45.77c0,1.521.187,3.293.572,5.416,1.264,6.792,4.145,11.822,8.569,14.982l.063.045.064.044c3.83,2.61,8.994,3.878,15.786,3.878h20.355c15.996,0,25.17-8.881,25.17-24.365V29.54c0-15.484-9.119-24.365-25.02-24.365h0Zm-14.311,31.365h8.08v31.77h-8.08v-31.77h0Z"/>
  </g>
  <g>
    <path class="cls-9" d="m395.991,96.175v-24.366h33.164l.501-.167c.442-.153.604-.208.604-1.048v-5.75c0-.14-.01-.239-.021-.306-.079-.03-.21-.07-.41-.104h-14.124c-7.127,0-12.675-2.927-16.49-8.7-2.141-3.255-3.225-6.804-3.225-10.555v-17.135c0-1.74.19-3.38.565-4.876,2.393-9.484,9.094-14.494,19.379-14.494h38.69v24.365h-34.077c-.12,0-.204.009-.259.018-.046.301-.049.422-.049.43v5.328c0,.099,0,.187.004.263l.025.075.045.293c.019.121.043.184.052.199h0s.268.223,1.181.334l.365.044.126.043c.07.003.15.003.24.003h12.578c10.721,0,17.414,5.315,19.358,15.371.273,1.462.41,2.801.41,3.999v16.215c0,6.323-1.914,11.385-5.69,15.047-3.747,3.631-8.813,5.473-15.06,5.473h-37.885Z"/>
    <path class="cls-2" d="m451.125,12.175v17.365h-30.577c-1.693,0-2.886.735-3.578,2.203-.154.773-.229,1.353-.229,1.739v5.333c0,.542.037.929.114,1.161.308,2.009,1.73,3.168,4.27,3.477.23.079.615.117,1.154.117h12.578c8.998,0,14.307,4.18,15.922,12.535.229,1.227.347,2.339.347,3.335v16.215c0,5.367-1.544,9.545-4.627,12.535-3.085,2.99-7.294,4.485-12.623,4.485h-34.385v-17.365h30.23l1.038-.345c2-.69,3.001-2.146,3.001-4.37v-5.75c0-2.3-1.228-3.603-3.68-3.91h-14.375c-5.904,0-10.428-2.375-13.57-7.13-1.765-2.683-2.645-5.558-2.645-8.625v-17.135c0-1.456.152-2.798.46-4.025,1.992-7.896,7.32-11.845,15.984-11.845h35.19m7-7h-42.19c-11.897,0-19.984,6.085-22.772,17.133-.447,1.784-.673,3.711-.673,5.737v17.135c0,4.446,1.277,8.642,3.796,12.472,4.449,6.732,11.161,10.283,19.418,10.283h11.055v.375h-34.27v31.365h41.385c7.187,0,13.073-2.173,17.495-6.458,4.483-4.348,6.755-10.256,6.755-17.562v-16.215c0-1.433-.152-2.945-.466-4.622-2.278-11.782-10.373-18.248-22.803-18.248h-11.116v-.03h34.385V5.175h0Z"/>
  </g>
</svg>