{
	"asset":{
		"generator":"Khronos glTF Blender I/O v3.5.30",
		"version":"2.0"
	},
	"scene":0,
	"scenes":[
		{
			"name":"Scene",
			"nodes":[
				0
			]
		}
	],
	"nodes":[
		{
			"mesh":0,
			"name":"beret",
			"rotation":[
				0.4420481324195862,
				-0.4009149968624115,
				0.5433498620986938,
				0.5904503464698792
			],
			"scale":[
				0.12217993289232254,
				0.12217993289232254,
				0.12217994034290314
			],
			"translation":[
				-0.17631611227989197,
				0.040383219718933105,
				-0.021814465522766113
			]
		}
	],
	"meshes":[
		{
			"name":"Text.007",
			"primitives":[
				{
					"attributes":{
						"POSITION":0,
						"TEXCOORD_0":1,
						"NORMAL":2
					},
					"indices":3
				}
			]
		}
	],
	"accessors":[
		{
			"bufferView":0,
			"componentType":5126,
			"count":1664,
			"max":[
				2.4448788166046143,
				0.05999999865889549,
				-11.126782417297363
			],
			"min":[
				0.31787872314453125,
				-0.05999999865889549,
				-11.817782402038574
			],
			"type":"VEC3"
		},
		{
			"bufferView":1,
			"componentType":5126,
			"count":1664,
			"type":"VEC2"
		},
		{
			"bufferView":2,
			"componentType":5126,
			"count":1664,
			"type":"VEC3"
		},
		{
			"bufferView":3,
			"componentType":5123,
			"count":4908,
			"type":"SCALAR"
		}
	],
	"bufferViews":[
		{
			"buffer":0,
			"byteLength":19968,
			"byteOffset":0,
			"target":34962
		},
		{
			"buffer":0,
			"byteLength":13312,
			"byteOffset":19968,
			"target":34962
		},
		{
			"buffer":0,
			"byteLength":19968,
			"byteOffset":33280,
			"target":34962
		},
		{
			"buffer":0,
			"byteLength":9816,
			"byteOffset":53248,
			"target":34963
		}
	],
	"buffers":[
		{
			"byteLength":63064,
			"uri":"data:application/octet-stream;base64,"
		}
	]
}
