{
	"asset":{
		"generator":"Khronos glTF Blender I/O v3.5.30",
		"version":"2.0"
	},
	"scene":0,
	"scenes":[
		{
			"name":"Scene",
			"nodes":[
				0
			]
		}
	],
	"nodes":[
		{
			"mesh":0,
			"name":"Beret",
			"translation":[
				0.045059412717819214,
				1.561927318572998,
				0.030946806073188782
			]
		}
	],
	"materials":[
		{
			"doubleSided":true,
			"name":"Material.004",
			"pbrMetallicRoughness":{
				"baseColorTexture":{
					"index":0
				},
				"metallicFactor":0,
				"roughnessFactor":0.5
			}
		}
	],
	"meshes":[
		{
			"name":"Plane.001",
			"primitives":[
				{
					"attributes":{
						"POSITION":0,
						"TEXCOORD_0":1,
						"NORMAL":2
					},
					"indices":3,
					"material":0
				}
			]
		}
	],
	"textures":[
		{
			"sampler":0,
			"source":0
		}
	],
	"images":[
		{
			"bufferView":4,
			"mimeType":"image/png",
			"name":"Beret_Bake1_PBR_Diffuse"
		}
	],
	"accessors":[
		{
			"bufferView":0,
			"componentType":5126,
			"count":2313,
			"max":[
				0.18443983793258667,
				0.035061925649642944,
				0.1544562131166458
			],
			"min":[
				-0.17589257657527924,
				-0.11088913679122925,
				-0.20540881156921387
			],
			"type":"VEC3"
		},
		{
			"bufferView":1,
			"componentType":5126,
			"count":2313,
			"type":"VEC2"
		},
		{
			"bufferView":2,
			"componentType":5126,
			"count":2313,
			"type":"VEC3"
		},
		{
			"bufferView":3,
			"componentType":5123,
			"count":3480,
			"type":"SCALAR"
		}
	],
	"bufferViews":[
		{
			"buffer":0,
			"byteLength":27756,
			"byteOffset":0,
			"target":34962
		},
		{
			"buffer":0,
			"byteLength":18504,
			"byteOffset":27756,
			"target":34962
		},
		{
			"buffer":0,
			"byteLength":27756,
			"byteOffset":46260,
			"target":34962
		},
		{
			"buffer":0,
			"byteLength":6960,
			"byteOffset":74016,
			"target":34963
		},
		{
			"buffer":0,
			"byteLength":703068,
			"byteOffset":80976
		}
	],
	"samplers":[
		{
			"magFilter":9729,
			"minFilter":9987
		}
	],
	"buffers":[
		{
			"byteLength":784044,
			"uri":"data:application/octet-stream;base64,"
		}
	]
}
