{
	"asset":{
		"generator":"Khronos glTF Blender I/O v3.5.30",
		"version":"2.0"
	},
	"scene":0,
	"scenes":[
		{
			"name":"Scene",
			"nodes":[
				0
			]
		}
	],
	"nodes":[
		{
			"mesh":0,
			"name":"caphat",
			"rotation":[
				0.5467119812965393,
				-0.5882304906845093,
				0.4444614052772522,
				0.3969195485115051
			],
			"scale":[
				0.12217994034290314,
				0.12217993289232254,
				0.12217994034290314
			],
			"translation":[
				-0.162461519241333,
				0.03894472122192383,
				-0.04079778492450714
			]
		}
	],
	"meshes":[
		{
			"name":"Text.006",
			"primitives":[
				{
					"attributes":{
						"POSITION":0,
						"TEXCOORD_0":1,
						"NORMAL":2
					},
					"indices":3
				}
			]
		}
	],
	"accessors":[
		{
			"bufferView":0,
			"componentType":5126,
			"count":2581,
			"max":[
				0.13633403182029724,
				0.05999999865889549,
				-11.076255798339844
			],
			"min":[
				-2.724666118621826,
				-0.05999999865889549,
				-11.988255500793457
			],
			"type":"VEC3"
		},
		{
			"bufferView":1,
			"componentType":5126,
			"count":2581,
			"type":"VEC2"
		},
		{
			"bufferView":2,
			"componentType":5126,
			"count":2581,
			"type":"VEC3"
		},
		{
			"bufferView":3,
			"componentType":5123,
			"count":7632,
			"type":"SCALAR"
		}
	],
	"bufferViews":[
		{
			"buffer":0,
			"byteLength":30972,
			"byteOffset":0,
			"target":34962
		},
		{
			"buffer":0,
			"byteLength":20648,
			"byteOffset":30972,
			"target":34962
		},
		{
			"buffer":0,
			"byteLength":30972,
			"byteOffset":51620,
			"target":34962
		},
		{
			"buffer":0,
			"byteLength":15264,
			"byteOffset":82592,
			"target":34963
		}
	],
	"buffers":[
		{
			"byteLength":97856,
			"uri":"data:application/octet-stream;base64,"
		}
	]
}
