{
	"asset":{
		"generator":"Khronos glTF Blender I/O v3.5.30",
		"version":"2.0"
	},
	"extensionsUsed":[
		"KHR_materials_specular",
		"KHR_materials_ior"
	],
	"scene":0,
	"scenes":[
		{
			"name":"Scene",
			"nodes":[
				0
			]
		}
	],
	"nodes":[
		{
			"mesh":0,
			"name":"Cap",
			"rotation":[
				0.093436099588871,
				0,
				0,
				0.995625376701355
			],
			"scale":[
				0.5228073596954346,
				0.5227391719818115,
				0.5227391719818115
			]
		}
	],
	"materials":[
		{
			"doubleSided":true,
			"extensions":{
				"KHR_materials_specular":{
					"specularColorFactor":[
						0.452713718683689,
						0.452713718683689,
						0.452713718683689
					]
				},
				"KHR_materials_ior":{
					"ior":1.4500000476837158
				}
			},
			"name":"Material.002",
			"pbrMetallicRoughness":{
				"baseColorTexture":{
					"index":0
				},
				"metallicFactor":0,
				"roughnessFactor":0.9045454263687134
			}
		}
	],
	"meshes":[
		{
			"name":"Mesh.007",
			"primitives":[
				{
					"attributes":{
						"COLOR_0":0,
						"POSITION":1,
						"TEXCOORD_0":2,
						"NORMAL":3
					},
					"indices":4,
					"material":0
				}
			]
		}
	],
	"textures":[
		{
			"sampler":0,
			"source":0
		}
	],
	"images":[
		{
			"bufferView":5,
			"mimeType":"image/png",
			"name":"hat_oasis-2"
		}
	],
	"accessors":[
		{
			"bufferView":0,
			"componentType":5123,
			"count":401,
			"normalized":true,
			"type":"VEC4"
		},
		{
			"bufferView":1,
			"componentType":5126,
			"count":401,
			"max":[
				0.7188649773597717,
				3.025035858154297,
				0.17853963375091553
			],
			"min":[
				-1.0674402713775635,
				2.0760114192962646,
				-1.132039189338684
			],
			"type":"VEC3"
		},
		{
			"bufferView":2,
			"componentType":5126,
			"count":401,
			"type":"VEC2"
		},
		{
			"bufferView":3,
			"componentType":5126,
			"count":401,
			"type":"VEC3"
		},
		{
			"bufferView":4,
			"componentType":5123,
			"count":888,
			"type":"SCALAR"
		}
	],
	"bufferViews":[
		{
			"buffer":0,
			"byteLength":3208,
			"byteOffset":0,
			"target":34962
		},
		{
			"buffer":0,
			"byteLength":4812,
			"byteOffset":3208,
			"target":34962
		},
		{
			"buffer":0,
			"byteLength":3208,
			"byteOffset":8020,
			"target":34962
		},
		{
			"buffer":0,
			"byteLength":4812,
			"byteOffset":11228,
			"target":34962
		},
		{
			"buffer":0,
			"byteLength":1776,
			"byteOffset":16040,
			"target":34963
		},
		{
			"buffer":0,
			"byteLength":815151,
			"byteOffset":17816
		}
	],
	"samplers":[
		{
			"magFilter":9729,
			"minFilter":9987
		}
	],
	"buffers":[
		{
			"byteLength":832968,
			"uri":"data:application/octet-stream;base64,"
		}
	]
}
