{
	"asset":{
		"generator":"Khronos glTF Blender I/O v3.5.30",
		"version":"2.0"
	},
	"extensionsUsed":[
		"KHR_materials_specular",
		"KHR_materials_ior"
	],
	"scene":0,
	"scenes":[
		{
			"name":"Scene",
			"nodes":[
				0,
				1
			]
		}
	],
	"nodes":[
		{
			"mesh":0,
			"name":"Milady_model"
		},
		{
			"mesh":1,
			"name":"Cap",
			"rotation":[
				0.09343620389699936,
				0,
				0,
				0.9956252574920654
			],
			"scale":[
				0.5228073596954346,
				0.5227392315864563,
				0.5227392315864563
			]
		}
	],
	"materials":[
		{
			"doubleSided":true,
			"emissiveFactor":[
				1,
				1,
				1
			],
			"emissiveTexture":{
				"index":0
			},
			"name":"Milady_model.001",
			"pbrMetallicRoughness":{
				"baseColorTexture":{
					"index":1
				},
				"metallicFactor":0,
				"roughnessFactor":0.5
			}
		},
		{
			"doubleSided":true,
			"extensions":{
				"KHR_materials_specular":{
					"specularColorFactor":[
						2.371357614441398,
						2.371357614441398,
						2.371357614441398
					]
				},
				"KHR_materials_ior":{
					"ior":1.4500000476837158
				}
			},
			"name":"01 - Default",
			"pbrMetallicRoughness":{
				"baseColorTexture":{
					"index":2
				},
				"metallicRoughnessTexture":{
					"index":3
				}
			}
		}
	],
	"meshes":[
		{
			"name":"Mesh.003",
			"primitives":[
				{
					"attributes":{
						"POSITION":0,
						"TEXCOORD_0":1,
						"NORMAL":2
					},
					"indices":3,
					"material":0
				}
			]
		},
		{
			"name":"Cap",
			"primitives":[
				{
					"attributes":{
						"COLOR_0":4,
						"POSITION":5,
						"TEXCOORD_0":6,
						"NORMAL":7
					},
					"indices":8,
					"material":1
				}
			]
		}
	],
	"textures":[
		{
			"sampler":0,
			"source":0
		},
		{
			"sampler":0,
			"source":0
		},
		{
			"sampler":0,
			"source":1
		},
		{
			"sampler":0,
			"source":2
		}
	],
	"images":[
		{
			"bufferView":4,
			"mimeType":"image/jpeg",
			"name":"Milady_Model_Fair"
		},
		{
			"bufferView":10,
			"mimeType":"image/jpeg",
			"name":"01 - Default_BaseColor"
		},
		{
			"bufferView":11,
			"mimeType":"image/png",
			"name":"01 - Default_Metallic-01 - Default_Roughness"
		}
	],
	"accessors":[
		{
			"bufferView":0,
			"componentType":5126,
			"count":2184,
			"max":[
				0.3182021379470825,
				1.538203239440918,
				0.4477207064628601
			],
			"min":[
				-0.2432090938091278,
				0.018556205555796623,
				-0.4479978084564209
			],
			"type":"VEC3"
		},
		{
			"bufferView":1,
			"componentType":5126,
			"count":2184,
			"type":"VEC2"
		},
		{
			"bufferView":2,
			"componentType":5126,
			"count":2184,
			"type":"VEC3"
		},
		{
			"bufferView":3,
			"componentType":5123,
			"count":10680,
			"type":"SCALAR"
		},
		{
			"bufferView":5,
			"componentType":5123,
			"count":258,
			"normalized":true,
			"type":"VEC4"
		},
		{
			"bufferView":6,
			"componentType":5126,
			"count":258,
			"max":[
				0.7125550508499146,
				3.3119473457336426,
				0.2156158685684204
			],
			"min":[
				-1.027559757232666,
				2.072068214416504,
				-1.304140329360962
			],
			"type":"VEC3"
		},
		{
			"bufferView":7,
			"componentType":5126,
			"count":258,
			"type":"VEC2"
		},
		{
			"bufferView":8,
			"componentType":5126,
			"count":258,
			"type":"VEC3"
		},
		{
			"bufferView":9,
			"componentType":5123,
			"count":1356,
			"type":"SCALAR"
		}
	],
	"bufferViews":[
		{
			"buffer":0,
			"byteLength":26208,
			"byteOffset":0,
			"target":34962
		},
		{
			"buffer":0,
			"byteLength":17472,
			"byteOffset":26208,
			"target":34962
		},
		{
			"buffer":0,
			"byteLength":26208,
			"byteOffset":43680,
			"target":34962
		},
		{
			"buffer":0,
			"byteLength":21360,
			"byteOffset":69888,
			"target":34963
		},
		{
			"buffer":0,
			"byteLength":120580,
			"byteOffset":91248
		},
		{
			"buffer":0,
			"byteLength":2064,
			"byteOffset":211828,
			"target":34962
		},
		{
			"buffer":0,
			"byteLength":3096,
			"byteOffset":213892,
			"target":34962
		},
		{
			"buffer":0,
			"byteLength":2064,
			"byteOffset":216988,
			"target":34962
		},
		{
			"buffer":0,
			"byteLength":3096,
			"byteOffset":219052,
			"target":34962
		},
		{
			"buffer":0,
			"byteLength":2712,
			"byteOffset":222148,
			"target":34963
		},
		{
			"buffer":0,
			"byteLength":246576,
			"byteOffset":224860
		},
		{
			"buffer":0,
			"byteLength":2148731,
			"byteOffset":471436
		}
	],
	"samplers":[
		{
			"magFilter":9729,
			"minFilter":9987
		}
	],
	"buffers":[
		{
			"byteLength":2620168,
			"uri":"data:application/octet-stream;base64,"
		}
	]
}
