{
	"asset":{
		"generator":"Khronos glTF Blender I/O v3.5.30",
		"version":"2.0"
	},
	"scene":0,
	"scenes":[
		{
			"name":"Scene",
			"nodes":[
				0
			]
		}
	],
	"nodes":[
		{
			"mesh":0,
			"name":"Earings_Gold"
		}
	],
	"materials":[
		{
			"doubleSided":true,
			"name":"Material.003",
			"pbrMetallicRoughness":{
				"baseColorTexture":{
					"index":0
				},
				"metallicFactor":0.5595855116844177,
				"roughnessFactor":0.27202072739601135
			}
		}
	],
	"meshes":[
		{
			"name":"Torus.002",
			"primitives":[
				{
					"attributes":{
						"POSITION":0,
						"TEXCOORD_0":1,
						"NORMAL":2
					},
					"indices":3,
					"material":0
				}
			]
		}
	],
	"textures":[
		{
			"sampler":0,
			"source":0
		}
	],
	"images":[
		{
			"bufferView":4,
			"mimeType":"image/png",
			"name":"jewelry_01"
		}
	],
	"accessors":[
		{
			"bufferView":0,
			"componentType":5126,
			"count":254,
			"max":[
				0.12012117356061935,
				1.142149806022644,
				-0.3828733563423157
			],
			"min":[
				0.08442661166191101,
				1.1123967170715332,
				-0.4106311500072479
			],
			"type":"VEC3"
		},
		{
			"bufferView":1,
			"componentType":5126,
			"count":254,
			"type":"VEC2"
		},
		{
			"bufferView":2,
			"componentType":5126,
			"count":254,
			"type":"VEC3"
		},
		{
			"bufferView":3,
			"componentType":5123,
			"count":336,
			"type":"SCALAR"
		}
	],
	"bufferViews":[
		{
			"buffer":0,
			"byteLength":3048,
			"byteOffset":0,
			"target":34962
		},
		{
			"buffer":0,
			"byteLength":2032,
			"byteOffset":3048,
			"target":34962
		},
		{
			"buffer":0,
			"byteLength":3048,
			"byteOffset":5080,
			"target":34962
		},
		{
			"buffer":0,
			"byteLength":672,
			"byteOffset":8128,
			"target":34963
		},
		{
			"buffer":0,
			"byteLength":44381,
			"byteOffset":8800
		}
	],
	"samplers":[
		{
			"magFilter":9729,
			"minFilter":9987
		}
	],
	"buffers":[
		{
			"byteLength":53184,
			"uri":"data:application/octet-stream;base64,"
		}
	]
}
