{
	"asset":{
		"generator":"Khronos glTF Blender I/O v3.5.30",
		"version":"2.0"
	},
	"scene":0,
	"scenes":[
		{
			"name":"Scene",
			"nodes":[
				0
			]
		}
	],
	"nodes":[
		{
			"mesh":0,
			"name":"short_hair",
			"rotation":[
				0.5,
				-0.5,
				0.5,
				0.5
			],
			"scale":[
				0.165766179561615,
				0.165766179561615,
				0.165766179561615
			],
			"translation":[
				0.08887084573507309,
				0.038222312927246094,
				-0.03177690505981445
			]
		}
	],
	"meshes":[
		{
			"name":"Text",
			"primitives":[
				{
					"attributes":{
						"POSITION":0,
						"TEXCOORD_0":1,
						"NORMAL":2
					},
					"indices":3
				}
			]
		}
	],
	"accessors":[
		{
			"bufferView":0,
			"componentType":5126,
			"count":2980,
			"max":[
				2.195162057876587,
				0.05999999865889549,
				-9.370626449584961
			],
			"min":[
				-1.7508381605148315,
				-0.05999999865889549,
				-10.061626434326172
			],
			"type":"VEC3"
		},
		{
			"bufferView":1,
			"componentType":5126,
			"count":2980,
			"type":"VEC2"
		},
		{
			"bufferView":2,
			"componentType":5126,
			"count":2980,
			"type":"VEC3"
		},
		{
			"bufferView":3,
			"componentType":5123,
			"count":8760,
			"type":"SCALAR"
		}
	],
	"bufferViews":[
		{
			"buffer":0,
			"byteLength":35760,
			"byteOffset":0,
			"target":34962
		},
		{
			"buffer":0,
			"byteLength":23840,
			"byteOffset":35760,
			"target":34962
		},
		{
			"buffer":0,
			"byteLength":35760,
			"byteOffset":59600,
			"target":34962
		},
		{
			"buffer":0,
			"byteLength":17520,
			"byteOffset":95360,
			"target":34963
		}
	],
	"buffers":[
		{
			"byteLength":112880,
			"uri":"data:application/octet-stream;base64,"
		}
	]
}
