{
	"asset":{
		"generator":"Khronos glTF Blender I/O v3.5.30",
		"version":"2.0"
	},
	"extensionsUsed":[
		"KHR_materials_specular",
		"KHR_materials_ior"
	],
	"scene":0,
	"scenes":[
		{
			"name":"Scene",
			"nodes":[
				0
			]
		}
	],
	"nodes":[
		{
			"mesh":0,
			"name":"Shorterw",
			"rotation":[
				0,
				-0.7150829434394836,
				0,
				0.69903963804245
			],
			"scale":[
				0.09571710228919983,
				0.09571713954210281,
				0.08716703951358795
			],
			"translation":[
				0,
				-0.08642645180225372,
				0
			]
		}
	],
	"materials":[
		{
			"doubleSided":true,
			"emissiveFactor":[
				1,
				1,
				1
			],
			"emissiveTexture":{
				"index":0
			},
			"extensions":{
				"KHR_materials_specular":{
					"specularColorFactor":[
						2.371357614441398,
						2.371357614441398,
						2.371357614441398
					]
				},
				"KHR_materials_ior":{
					"ior":1.4500000476837158
				}
			},
			"name":"mat_Short",
			"pbrMetallicRoughness":{
				"baseColorTexture":{
					"index":1
				},
				"roughnessFactor":0.858578622341156
			}
		}
	],
	"meshes":[
		{
			"name":"Mesh.001",
			"primitives":[
				{
					"attributes":{
						"POSITION":0,
						"TEXCOORD_0":1,
						"NORMAL":2
					},
					"indices":3,
					"material":0
				}
			]
		}
	],
	"textures":[
		{
			"sampler":0,
			"source":0
		},
		{
			"sampler":0,
			"source":0
		}
	],
	"images":[
		{
			"bufferView":4,
			"mimeType":"image/png",
			"name":"Short"
		}
	],
	"accessors":[
		{
			"bufferView":0,
			"componentType":5126,
			"count":1312,
			"max":[
				4.026094436645508,
				17.412797927856445,
				3.2343263626098633
			],
			"min":[
				-3.917785167694092,
				10.064371109008789,
				-5.423406600952148
			],
			"type":"VEC3"
		},
		{
			"bufferView":1,
			"componentType":5126,
			"count":1312,
			"type":"VEC2"
		},
		{
			"bufferView":2,
			"componentType":5126,
			"count":1312,
			"type":"VEC3"
		},
		{
			"bufferView":3,
			"componentType":5123,
			"count":3600,
			"type":"SCALAR"
		}
	],
	"bufferViews":[
		{
			"buffer":0,
			"byteLength":15744,
			"byteOffset":0,
			"target":34962
		},
		{
			"buffer":0,
			"byteLength":10496,
			"byteOffset":15744,
			"target":34962
		},
		{
			"buffer":0,
			"byteLength":15744,
			"byteOffset":26240,
			"target":34962
		},
		{
			"buffer":0,
			"byteLength":7200,
			"byteOffset":41984,
			"target":34963
		},
		{
			"buffer":0,
			"byteLength":2317971,
			"byteOffset":49184
		}
	],
	"samplers":[
		{
			"magFilter":9729,
			"minFilter":9987
		}
	],
	"buffers":[
		{
			"byteLength":2367156,
			"uri":"data:application/octet-stream;base64,"
		}
	]
}
