{
	"asset":{
		"generator":"Khronos glTF Blender I/O v3.5.30",
		"version":"2.0"
	},
	"scene":0,
	"scenes":[
		{
			"name":"Scene",
			"nodes":[
				0
			]
		}
	],
	"nodes":[
		{
			"mesh":0,
			"name":"long_hair",
			"rotation":[
				0.5,
				-0.5,
				0.5,
				0.5
			],
			"scale":[
				0.165766179561615,
				0.165766179561615,
				0.165766179561615
			],
			"translation":[
				0.08894135057926178,
				0.038222312927246094,
				-0.03177690505981445
			]
		}
	],
	"meshes":[
		{
			"name":"Text.001",
			"primitives":[
				{
					"attributes":{
						"POSITION":0,
						"TEXCOORD_0":1,
						"NORMAL":2
					},
					"indices":3
				}
			]
		}
	],
	"accessors":[
		{
			"bufferView":0,
			"componentType":5126,
			"count":3030,
			"max":[
				1.7566885948181152,
				0.05999999865889549,
				-9.149197578430176
			],
			"min":[
				-1.6973114013671875,
				-0.05999999865889549,
				-10.061197280883789
			],
			"type":"VEC3"
		},
		{
			"bufferView":1,
			"componentType":5126,
			"count":3030,
			"type":"VEC2"
		},
		{
			"bufferView":2,
			"componentType":5126,
			"count":3030,
			"type":"VEC3"
		},
		{
			"bufferView":3,
			"componentType":5123,
			"count":8952,
			"type":"SCALAR"
		}
	],
	"bufferViews":[
		{
			"buffer":0,
			"byteLength":36360,
			"byteOffset":0,
			"target":34962
		},
		{
			"buffer":0,
			"byteLength":24240,
			"byteOffset":36360,
			"target":34962
		},
		{
			"buffer":0,
			"byteLength":36360,
			"byteOffset":60600,
			"target":34962
		},
		{
			"buffer":0,
			"byteLength":17904,
			"byteOffset":96960,
			"target":34963
		}
	],
	"buffers":[
		{
			"byteLength":114864,
			"uri":"data:application/octet-stream;base64,"
		}
	]
}
