{
	"asset":{
		"generator":"Khronos glTF Blender I/O v3.5.30",
		"version":"2.0"
	},
	"extensionsUsed":[
		"KHR_materials_specular",
		"KHR_materials_ior"
	],
	"scene":0,
	"scenes":[
		{
			"name":"Scene",
			"nodes":[
				0
			]
		}
	],
	"nodes":[
		{
			"mesh":0,
			"name":"Fez"
		}
	],
	"materials":[
		{
			"doubleSided":true,
			"extensions":{
				"KHR_materials_specular":{
					"specularColorFactor":[
						0,
						0,
						0
					]
				},
				"KHR_materials_ior":{
					"ior":1.4500000476837158
				}
			},
			"name":"Material.004",
			"pbrMetallicRoughness":{
				"baseColorTexture":{
					"index":0
				},
				"metallicFactor":0
			}
		}
	],
	"meshes":[
		{
			"name":"NurbsPath",
			"primitives":[
				{
					"attributes":{
						"POSITION":0,
						"TEXCOORD_0":1,
						"NORMAL":2
					},
					"indices":3,
					"material":0
				}
			]
		}
	],
	"textures":[
		{
			"sampler":0,
			"source":0
		}
	],
	"images":[
		{
			"bufferView":4,
			"mimeType":"image/png",
			"name":"Fez_Bake1_PBR_Diffuse"
		}
	],
	"accessors":[
		{
			"bufferView":0,
			"componentType":5126,
			"count":1366,
			"max":[
				0.10234616696834564,
				1.6437084674835205,
				-0.0665268748998642
			],
			"min":[
				-0.08981366455554962,
				1.4479812383651733,
				-0.307245135307312
			],
			"type":"VEC3"
		},
		{
			"bufferView":1,
			"componentType":5126,
			"count":1366,
			"type":"VEC2"
		},
		{
			"bufferView":2,
			"componentType":5126,
			"count":1366,
			"type":"VEC3"
		},
		{
			"bufferView":3,
			"componentType":5123,
			"count":2118,
			"type":"SCALAR"
		}
	],
	"bufferViews":[
		{
			"buffer":0,
			"byteLength":16392,
			"byteOffset":0,
			"target":34962
		},
		{
			"buffer":0,
			"byteLength":10928,
			"byteOffset":16392,
			"target":34962
		},
		{
			"buffer":0,
			"byteLength":16392,
			"byteOffset":27320,
			"target":34962
		},
		{
			"buffer":0,
			"byteLength":4236,
			"byteOffset":43712,
			"target":34963
		},
		{
			"buffer":0,
			"byteLength":326540,
			"byteOffset":47948
		}
	],
	"samplers":[
		{
			"magFilter":9729,
			"minFilter":9987
		}
	],
	"buffers":[
		{
			"byteLength":374488,
			"uri":"data:application/octet-stream;base64,"
		}
	]
}
