{
	"asset":{
		"generator":"Khronos glTF Blender I/O v3.5.30",
		"version":"2.0"
	},
	"scene":0,
	"scenes":[
		{
			"name":"Scene",
			"nodes":[
				0
			]
		}
	],
	"nodes":[
		{
			"mesh":0,
			"name":"Milady_model.001"
		}
	],
	"materials":[
		{
			"doubleSided":true,
			"emissiveFactor":[
				0.5,
				0.5,
				0.5
			],
			"emissiveTexture":{
				"index":0
			},
			"name":"Milady_model.002",
			"pbrMetallicRoughness":{
				"baseColorTexture":{
					"index":1
				},
				"metallicFactor":0,
				"roughnessFactor":0.5
			}
		}
	],
	"meshes":[
		{
			"name":"Mesh.006",
			"primitives":[
				{
					"attributes":{
						"POSITION":0,
						"TEXCOORD_0":1,
						"NORMAL":2
					},
					"indices":3,
					"material":0
				}
			]
		}
	],
	"textures":[
		{
			"sampler":0,
			"source":0
		},
		{
			"sampler":0,
			"source":0
		}
	],
	"images":[
		{
			"bufferView":4,
			"mimeType":"image/png",
			"name":"Milady_Model_TanGrey"
		}
	],
	"accessors":[
		{
			"bufferView":0,
			"componentType":5126,
			"count":2184,
			"max":[
				0.3182021379470825,
				1.538203239440918,
				0.4477207064628601
			],
			"min":[
				-0.2432090938091278,
				0.018556205555796623,
				-0.4479978084564209
			],
			"type":"VEC3"
		},
		{
			"bufferView":1,
			"componentType":5126,
			"count":2184,
			"type":"VEC2"
		},
		{
			"bufferView":2,
			"componentType":5126,
			"count":2184,
			"type":"VEC3"
		},
		{
			"bufferView":3,
			"componentType":5123,
			"count":10680,
			"type":"SCALAR"
		}
	],
	"bufferViews":[
		{
			"buffer":0,
			"byteLength":26208,
			"byteOffset":0,
			"target":34962
		},
		{
			"buffer":0,
			"byteLength":17472,
			"byteOffset":26208,
			"target":34962
		},
		{
			"buffer":0,
			"byteLength":26208,
			"byteOffset":43680,
			"target":34962
		},
		{
			"buffer":0,
			"byteLength":21360,
			"byteOffset":69888,
			"target":34963
		},
		{
			"buffer":0,
			"byteLength":1489723,
			"byteOffset":91248
		}
	],
	"samplers":[
		{
			"magFilter":9729,
			"minFilter":9987
		}
	],
	"buffers":[
		{
			"byteLength":1580972,
			"uri":"data:application/octet-stream;base64,"
		}
	]
}
