{
	"asset":{
		"generator":"Khronos glTF Blender I/O v3.5.30",
		"version":"2.0"
	},
	"scene":0,
	"scenes":[
		{
			"name":"Scene",
			"nodes":[
				0,
				1,
				2,
				3
			]
		}
	],
	"nodes":[
		{
			"mesh":0,
			"name":"Milady_model"
		},
		{
			"mesh":1,
			"name":"Milady_hair"
		},
		{
			"mesh":2,
			"name":"Milady_clothing.001"
		},
		{
			"mesh":3,
			"name":"Milady_clothing"
		}
	],
	"materials":[
		{
			"doubleSided":true,
			"emissiveFactor":[
				1,
				1,
				1
			],
			"emissiveTexture":{
				"index":0
			},
			"name":"Milady_model.001",
			"pbrMetallicRoughness":{
				"baseColorTexture":{
					"index":1
				},
				"metallicFactor":0,
				"roughnessFactor":0.5
			}
		},
		{
			"doubleSided":true,
			"emissiveFactor":[
				1,
				1,
				1
			],
			"emissiveTexture":{
				"index":2
			},
			"name":"Milady_clothing",
			"pbrMetallicRoughness":{
				"baseColorTexture":{
					"index":3
				},
				"metallicFactor":0,
				"roughnessFactor":0.5
			}
		},
		{
			"doubleSided":true,
			"emissiveFactor":[
				1,
				1,
				1
			],
			"emissiveTexture":{
				"index":4
			},
			"name":"Hair",
			"pbrMetallicRoughness":{
				"baseColorTexture":{
					"index":5
				},
				"metallicFactor":0,
				"roughnessFactor":0.5
			}
		}
	],
	"meshes":[
		{
			"name":"Mesh.003",
			"primitives":[
				{
					"attributes":{
						"POSITION":0,
						"TEXCOORD_0":1,
						"NORMAL":2
					},
					"indices":3,
					"material":0
				},
				{
					"attributes":{
						"POSITION":4,
						"TEXCOORD_0":5,
						"NORMAL":6
					},
					"indices":7,
					"material":1
				}
			]
		},
		{
			"name":"Mesh.001",
			"primitives":[
				{
					"attributes":{
						"POSITION":8,
						"TEXCOORD_0":9,
						"NORMAL":10
					},
					"indices":11,
					"material":2
				}
			]
		},
		{
			"name":"Mesh.007",
			"primitives":[
				{
					"attributes":{
						"POSITION":12,
						"TEXCOORD_0":13,
						"NORMAL":14
					},
					"indices":15,
					"material":1
				}
			]
		},
		{
			"name":"Mesh.002",
			"primitives":[
				{
					"attributes":{
						"POSITION":16,
						"TEXCOORD_0":17,
						"NORMAL":18
					},
					"indices":19,
					"material":1
				}
			]
		}
	],
	"textures":[
		{
			"sampler":0,
			"source":0
		},
		{
			"sampler":0,
			"source":0
		},
		{
			"sampler":0,
			"source":1
		},
		{
			"sampler":0,
			"source":1
		},
		{
			"sampler":0,
			"source":2
		},
		{
			"sampler":0,
			"source":2
		}
	],
	"images":[
		{
			"bufferView":4,
			"mimeType":"image/jpeg",
			"name":"Milady_Model_Fair"
		},
		{
			"bufferView":9,
			"mimeType":"image/jpeg",
			"name":"Milady_clothing"
		},
		{
			"bufferView":14,
			"mimeType":"image/jpeg",
			"name":"Milady_hair"
		}
	],
	"accessors":[
		{
			"bufferView":0,
			"componentType":5126,
			"count":2185,
			"max":[
				0.3182021379470825,
				1.538203239440918,
				0.4477207064628601
			],
			"min":[
				-0.2432090938091278,
				0.018556205555796623,
				-0.4479978084564209
			],
			"type":"VEC3"
		},
		{
			"bufferView":1,
			"componentType":5126,
			"count":2185,
			"type":"VEC2"
		},
		{
			"bufferView":2,
			"componentType":5126,
			"count":2185,
			"type":"VEC3"
		},
		{
			"bufferView":3,
			"componentType":5123,
			"count":10704,
			"type":"SCALAR"
		},
		{
			"bufferView":5,
			"componentType":5126,
			"count":290,
			"max":[
				0.08868098258972168,
				0.07704559713602066,
				0.15622107684612274
			],
			"min":[
				-0.10126243531703949,
				-0.003258021082729101,
				-0.1595471054315567
			],
			"type":"VEC3"
		},
		{
			"bufferView":6,
			"componentType":5126,
			"count":290,
			"type":"VEC2"
		},
		{
			"bufferView":7,
			"componentType":5126,
			"count":290,
			"type":"VEC3"
		},
		{
			"bufferView":8,
			"componentType":5123,
			"count":1296,
			"type":"SCALAR"
		},
		{
			"bufferView":10,
			"componentType":5126,
			"count":1362,
			"max":[
				0.4126913547515869,
				1.5596998929977417,
				0.5013609528541565
			],
			"min":[
				-0.2628776431083679,
				0.7438979148864746,
				-0.48636794090270996
			],
			"type":"VEC3"
		},
		{
			"bufferView":11,
			"componentType":5126,
			"count":1362,
			"type":"VEC2"
		},
		{
			"bufferView":12,
			"componentType":5126,
			"count":1362,
			"type":"VEC3"
		},
		{
			"bufferView":13,
			"componentType":5123,
			"count":5598,
			"type":"SCALAR"
		},
		{
			"bufferView":15,
			"componentType":5126,
			"count":53,
			"max":[
				-0.10851295292377472,
				0.8394739031791687,
				0.026689086109399796
			],
			"min":[
				-0.13048039376735687,
				0.6270430088043213,
				-0.07373448461294174
			],
			"type":"VEC3"
		},
		{
			"bufferView":16,
			"componentType":5126,
			"count":53,
			"type":"VEC2"
		},
		{
			"bufferView":17,
			"componentType":5126,
			"count":53,
			"type":"VEC3"
		},
		{
			"bufferView":18,
			"componentType":5123,
			"count":162,
			"type":"SCALAR"
		},
		{
			"bufferView":19,
			"componentType":5126,
			"count":880,
			"max":[
				0.2197922319173813,
				0.9219782948493958,
				0.24107785522937775
			],
			"min":[
				-0.16230769455432892,
				0.2680831551551819,
				-0.23347021639347076
			],
			"type":"VEC3"
		},
		{
			"bufferView":20,
			"componentType":5126,
			"count":880,
			"type":"VEC2"
		},
		{
			"bufferView":21,
			"componentType":5126,
			"count":880,
			"type":"VEC3"
		},
		{
			"bufferView":22,
			"componentType":5123,
			"count":4044,
			"type":"SCALAR"
		}
	],
	"bufferViews":[
		{
			"buffer":0,
			"byteLength":26220,
			"byteOffset":0,
			"target":34962
		},
		{
			"buffer":0,
			"byteLength":17480,
			"byteOffset":26220,
			"target":34962
		},
		{
			"buffer":0,
			"byteLength":26220,
			"byteOffset":43700,
			"target":34962
		},
		{
			"buffer":0,
			"byteLength":21408,
			"byteOffset":69920,
			"target":34963
		},
		{
			"buffer":0,
			"byteLength":120580,
			"byteOffset":91328
		},
		{
			"buffer":0,
			"byteLength":3480,
			"byteOffset":211908,
			"target":34962
		},
		{
			"buffer":0,
			"byteLength":2320,
			"byteOffset":215388,
			"target":34962
		},
		{
			"buffer":0,
			"byteLength":3480,
			"byteOffset":217708,
			"target":34962
		},
		{
			"buffer":0,
			"byteLength":2592,
			"byteOffset":221188,
			"target":34963
		},
		{
			"buffer":0,
			"byteLength":168605,
			"byteOffset":223780
		},
		{
			"buffer":0,
			"byteLength":16344,
			"byteOffset":392388,
			"target":34962
		},
		{
			"buffer":0,
			"byteLength":10896,
			"byteOffset":408732,
			"target":34962
		},
		{
			"buffer":0,
			"byteLength":16344,
			"byteOffset":419628,
			"target":34962
		},
		{
			"buffer":0,
			"byteLength":11196,
			"byteOffset":435972,
			"target":34963
		},
		{
			"buffer":0,
			"byteLength":135794,
			"byteOffset":447168
		},
		{
			"buffer":0,
			"byteLength":636,
			"byteOffset":582964,
			"target":34962
		},
		{
			"buffer":0,
			"byteLength":424,
			"byteOffset":583600,
			"target":34962
		},
		{
			"buffer":0,
			"byteLength":636,
			"byteOffset":584024,
			"target":34962
		},
		{
			"buffer":0,
			"byteLength":324,
			"byteOffset":584660,
			"target":34963
		},
		{
			"buffer":0,
			"byteLength":10560,
			"byteOffset":584984,
			"target":34962
		},
		{
			"buffer":0,
			"byteLength":7040,
			"byteOffset":595544,
			"target":34962
		},
		{
			"buffer":0,
			"byteLength":10560,
			"byteOffset":602584,
			"target":34962
		},
		{
			"buffer":0,
			"byteLength":8088,
			"byteOffset":613144,
			"target":34963
		}
	],
	"samplers":[
		{
			"magFilter":9729,
			"minFilter":9987
		}
	],
	"buffers":[
		{
			"byteLength":621232,
			"uri":"data:application/octet-stream;base64,"
		}
	]
}
