{
	"asset":{
		"generator":"Khronos glTF Blender I/O v3.5.30",
		"version":"2.0"
	},
	"scene":0,
	"scenes":[
		{
			"name":"Scene",
			"nodes":[
				0
			]
		}
	],
	"nodes":[
		{
			"mesh":0,
			"name":"Miilady",
			"rotation":[
				0.7071068286895752,
				0,
				0,
				0.7071068286895752
			]
		}
	],
	"materials":[
		{
			"name":"BODY",
			"pbrMetallicRoughness":{
				"baseColorTexture":{
					"index":0
				},
				"metallicFactor":0
			}
		}
	],
	"meshes":[
		{
			"name":"Body_36338",
			"primitives":[
				{
					"attributes":{
						"POSITION":0,
						"TEXCOORD_0":1,
						"NORMAL":2
					},
					"indices":3,
					"material":0
				}
			]
		}
	],
	"textures":[
		{
			"sampler":0,
			"source":0
		}
	],
	"images":[
		{
			"bufferView":4,
			"mimeType":"image/png",
			"name":"miltex"
		}
	],
	"accessors":[
		{
			"bufferView":0,
			"componentType":5126,
			"count":5861,
			"max":[
				0.23189552128314972,
				0.42505893111228943,
				0.014764189720153809
			],
			"min":[
				-0.1348016858100891,
				-0.4250595271587372,
				-1.56288743019104
			],
			"type":"VEC3"
		},
		{
			"bufferView":1,
			"componentType":5126,
			"count":5861,
			"type":"VEC2"
		},
		{
			"bufferView":2,
			"componentType":5126,
			"count":5861,
			"type":"VEC3"
		},
		{
			"bufferView":3,
			"componentType":5123,
			"count":23445,
			"type":"SCALAR"
		}
	],
	"bufferViews":[
		{
			"buffer":0,
			"byteLength":70332,
			"byteOffset":0,
			"target":34962
		},
		{
			"buffer":0,
			"byteLength":46888,
			"byteOffset":70332,
			"target":34962
		},
		{
			"buffer":0,
			"byteLength":70332,
			"byteOffset":117220,
			"target":34962
		},
		{
			"buffer":0,
			"byteLength":46890,
			"byteOffset":187552,
			"target":34963
		},
		{
			"buffer":0,
			"byteLength":376840,
			"byteOffset":234444
		}
	],
	"samplers":[
		{
			"magFilter":9729,
			"minFilter":9987
		}
	],
	"buffers":[
		{
			"byteLength":611284,
			"uri":"data:application/octet-stream;base64,"
		}
	]
}
