{
	"asset":{
		"generator":"Khronos glTF Blender I/O v3.5.30",
		"version":"2.0"
	},
	"scene":0,
	"scenes":[
		{
			"name":"Scene",
			"nodes":[
				0
			]
		}
	],
	"nodes":[
		{
			"mesh":0,
			"name":"Milady_clothing"
		}
	],
	"materials":[
		{
			"doubleSided":true,
			"emissiveFactor":[
				1,
				1,
				1
			],
			"emissiveTexture":{
				"index":0
			},
			"name":"Milady_clothing",
			"pbrMetallicRoughness":{
				"baseColorTexture":{
					"index":1
				},
				"metallicFactor":0,
				"roughnessFactor":0.5
			}
		}
	],
	"meshes":[
		{
			"name":"Mesh.002",
			"primitives":[
				{
					"attributes":{
						"POSITION":0,
						"TEXCOORD_0":1,
						"NORMAL":2
					},
					"indices":3,
					"material":0
				}
			]
		}
	],
	"textures":[
		{
			"sampler":0,
			"source":0
		},
		{
			"sampler":0,
			"source":0
		}
	],
	"images":[
		{
			"bufferView":4,
			"mimeType":"image/jpeg",
			"name":"Milady_clothing"
		}
	],
	"accessors":[
		{
			"bufferView":0,
			"componentType":5126,
			"count":933,
			"max":[
				0.2197922319173813,
				0.9219782948493958,
				0.24107785522937775
			],
			"min":[
				-0.16230769455432892,
				0.2680831551551819,
				-0.23347021639347076
			],
			"type":"VEC3"
		},
		{
			"bufferView":1,
			"componentType":5126,
			"count":933,
			"type":"VEC2"
		},
		{
			"bufferView":2,
			"componentType":5126,
			"count":933,
			"type":"VEC3"
		},
		{
			"bufferView":3,
			"componentType":5123,
			"count":4206,
			"type":"SCALAR"
		}
	],
	"bufferViews":[
		{
			"buffer":0,
			"byteLength":11196,
			"byteOffset":0,
			"target":34962
		},
		{
			"buffer":0,
			"byteLength":7464,
			"byteOffset":11196,
			"target":34962
		},
		{
			"buffer":0,
			"byteLength":11196,
			"byteOffset":18660,
			"target":34962
		},
		{
			"buffer":0,
			"byteLength":8412,
			"byteOffset":29856,
			"target":34963
		},
		{
			"buffer":0,
			"byteLength":168605,
			"byteOffset":38268
		}
	],
	"samplers":[
		{
			"magFilter":9729,
			"minFilter":9987
		}
	],
	"buffers":[
		{
			"byteLength":206876,
			"uri":"data:application/octet-stream;base64,"
		}
	]
}
