{
	"asset":{
		"generator":"Khronos glTF Blender I/O v3.5.30",
		"version":"2.0"
	},
	"extensionsUsed":[
		"KHR_materials_specular",
		"KHR_materials_ior"
	],
	"scene":0,
	"scenes":[
		{
			"name":"Scene",
			"nodes":[
				0
			]
		}
	],
	"nodes":[
		{
			"mesh":0,
			"name":"DenimShorts"
		}
	],
	"materials":[
		{
			"doubleSided":true,
			"emissiveFactor":[
				1,
				1,
				1
			],
			"emissiveTexture":{
				"index":0
			},
			"extensions":{
				"KHR_materials_specular":{
					"specularColorFactor":[
						2.371357614441398,
						2.371357614441398,
						2.371357614441398
					]
				},
				"KHR_materials_ior":{
					"ior":1.4500000476837158
				}
			},
			"name":"mat_DenimShorts",
			"pbrMetallicRoughness":{
				"baseColorTexture":{
					"index":1
				},
				"roughnessFactor":0.858578622341156
			}
		}
	],
	"meshes":[
		{
			"name":"Mesh",
			"primitives":[
				{
					"attributes":{
						"POSITION":0,
						"TEXCOORD_0":1,
						"NORMAL":2
					},
					"indices":3,
					"material":0
				}
			]
		}
	],
	"textures":[
		{
			"sampler":0,
			"source":0
		},
		{
			"sampler":0,
			"source":0
		}
	],
	"images":[
		{
			"bufferView":4,
			"mimeType":"image/png",
			"name":"DenimShorts"
		}
	],
	"accessors":[
		{
			"bufferView":0,
			"componentType":5126,
			"count":821,
			"max":[
				0.14617417752742767,
				0.622736930847168,
				0.22854001820087433
			],
			"min":[
				-0.12248697131872177,
				0.2875308692455292,
				-0.21422863006591797
			],
			"type":"VEC3"
		},
		{
			"bufferView":1,
			"componentType":5126,
			"count":821,
			"type":"VEC2"
		},
		{
			"bufferView":2,
			"componentType":5126,
			"count":821,
			"type":"VEC3"
		},
		{
			"bufferView":3,
			"componentType":5123,
			"count":1674,
			"type":"SCALAR"
		}
	],
	"bufferViews":[
		{
			"buffer":0,
			"byteLength":9852,
			"byteOffset":0,
			"target":34962
		},
		{
			"buffer":0,
			"byteLength":6568,
			"byteOffset":9852,
			"target":34962
		},
		{
			"buffer":0,
			"byteLength":9852,
			"byteOffset":16420,
			"target":34962
		},
		{
			"buffer":0,
			"byteLength":3348,
			"byteOffset":26272,
			"target":34963
		},
		{
			"buffer":0,
			"byteLength":1665321,
			"byteOffset":29620
		}
	],
	"samplers":[
		{
			"magFilter":9729,
			"minFilter":9987
		}
	],
	"buffers":[
		{
			"byteLength":1694944,
			"uri":"data:application/octet-stream;base64,"
		}
	]
}
