{
	"asset":{
		"generator":"Khronos glTF Blender I/O v3.5.30",
		"version":"2.0"
	},
	"extensionsUsed":[
		"KHR_materials_specular",
		"KHR_materials_ior"
	],
	"scene":0,
	"scenes":[
		{
			"name":"Scene",
			"nodes":[
				0
			]
		}
	],
	"nodes":[
		{
			"mesh":0,
			"name":"Shorts",
			"rotation":[
				0,
				-0.7071067094802856,
				0,
				0.7071068286895752
			],
			"scale":[
				0.07349999248981476,
				0.07349999248981476,
				0.07349999248981476
			],
			"translation":[
				-0.01851057820022106,
				-0.0004211999475955963,
				-0.002052065683528781
			]
		}
	],
	"materials":[
		{
			"doubleSided":true,
			"emissiveFactor":[
				0.5,
				0.5,
				0.5
			],
			"emissiveTexture":{
				"index":0
			},
			"extensions":{
				"KHR_materials_specular":{
					"specularColorFactor":[
						0,
						0,
						0
					]
				},
				"KHR_materials_ior":{
					"ior":1.4500000476837158
				}
			},
			"name":"Material.001",
			"pbrMetallicRoughness":{
				"baseColorTexture":{
					"index":1
				},
				"metallicFactor":0
			}
		}
	],
	"meshes":[
		{
			"name":"Mesh.003",
			"primitives":[
				{
					"attributes":{
						"POSITION":0,
						"TEXCOORD_0":1,
						"NORMAL":2
					},
					"indices":3,
					"material":0
				}
			]
		}
	],
	"textures":[
		{
			"sampler":0,
			"source":0
		},
		{
			"sampler":0,
			"source":0
		}
	],
	"images":[
		{
			"bufferView":4,
			"mimeType":"image/png",
			"name":"Shorts_Bake1_PBR_Diffuse"
		}
	],
	"accessors":[
		{
			"bufferView":0,
			"componentType":5126,
			"count":429,
			"max":[
				2.5487327575683594,
				9.622302055358887,
				1.0750714540481567
			],
			"min":[
				-2.5487327575683594,
				5.250852584838867,
				-1.8509643077850342
			],
			"type":"VEC3"
		},
		{
			"bufferView":1,
			"componentType":5126,
			"count":429,
			"type":"VEC2"
		},
		{
			"bufferView":2,
			"componentType":5126,
			"count":429,
			"type":"VEC3"
		},
		{
			"bufferView":3,
			"componentType":5123,
			"count":1458,
			"type":"SCALAR"
		}
	],
	"bufferViews":[
		{
			"buffer":0,
			"byteLength":5148,
			"byteOffset":0,
			"target":34962
		},
		{
			"buffer":0,
			"byteLength":3432,
			"byteOffset":5148,
			"target":34962
		},
		{
			"buffer":0,
			"byteLength":5148,
			"byteOffset":8580,
			"target":34962
		},
		{
			"buffer":0,
			"byteLength":2916,
			"byteOffset":13728,
			"target":34963
		},
		{
			"buffer":0,
			"byteLength":209963,
			"byteOffset":16644
		}
	],
	"samplers":[
		{
			"magFilter":9729,
			"minFilter":9987
		}
	],
	"buffers":[
		{
			"byteLength":226608,
			"uri":"data:application/octet-stream;base64,"
		}
	]
}
