{
	"asset":{
		"generator":"Khronos glTF Blender I/O v3.5.30",
		"version":"2.0"
	},
	"scene":0,
	"scenes":[
		{
			"name":"Scene",
			"nodes":[
				0
			]
		}
	],
	"nodes":[
		{
			"mesh":0,
			"name":"pleatedskirt",
			"rotation":[
				0.5,
				-0.5,
				0.5,
				0.5
			],
			"scale":[
				0.12217994034290314,
				0.12217994034290314,
				0.12217994034290314
			],
			"translation":[
				-0.19602757692337036,
				0.03822225332260132,
				-0.03177690505981445
			]
		}
	],
	"meshes":[
		{
			"name":"Text.004",
			"primitives":[
				{
					"attributes":{
						"POSITION":0,
						"TEXCOORD_0":1,
						"NORMAL":2
					},
					"indices":3
				}
			]
		}
	],
	"accessors":[
		{
			"bufferView":0,
			"componentType":5126,
			"count":3642,
			"max":[
				2.5196356773376465,
				0.05999999865889549,
				-4.760263919830322
			],
			"min":[
				-2.459364652633667,
				-0.05999999865889549,
				-5.672264099121094
			],
			"type":"VEC3"
		},
		{
			"bufferView":1,
			"componentType":5126,
			"count":3642,
			"type":"VEC2"
		},
		{
			"bufferView":2,
			"componentType":5126,
			"count":3642,
			"type":"VEC3"
		},
		{
			"bufferView":3,
			"componentType":5123,
			"count":10680,
			"type":"SCALAR"
		}
	],
	"bufferViews":[
		{
			"buffer":0,
			"byteLength":43704,
			"byteOffset":0,
			"target":34962
		},
		{
			"buffer":0,
			"byteLength":29136,
			"byteOffset":43704,
			"target":34962
		},
		{
			"buffer":0,
			"byteLength":43704,
			"byteOffset":72840,
			"target":34962
		},
		{
			"buffer":0,
			"byteLength":21360,
			"byteOffset":116544,
			"target":34963
		}
	],
	"buffers":[
		{
			"byteLength":137904,
			"uri":"data:application/octet-stream;base64,"
		}
	]
}
