{
	"asset":{
		"generator":"Khronos glTF Blender I/O v3.5.30",
		"version":"2.0"
	},
	"scene":0,
	"scenes":[
		{
			"name":"Scene",
			"nodes":[
				0
			]
		}
	],
	"nodes":[
		{
			"mesh":0,
			"name":"polkadot",
			"rotation":[
				0.5,
				-0.5,
				0.5,
				0.5
			],
			"scale":[
				0.12217994034290314,
				0.12217994034290314,
				0.12217994034290314
			],
			"translation":[
				-0.19602756202220917,
				0.03822225332260132,
				-0.03177690505981445
			]
		}
	],
	"meshes":[
		{
			"name":"Text.002",
			"primitives":[
				{
					"attributes":{
						"POSITION":0,
						"TEXCOORD_0":1,
						"NORMAL":2
					},
					"indices":3
				}
			]
		}
	],
	"accessors":[
		{
			"bufferView":0,
			"componentType":5126,
			"count":3854,
			"max":[
				3.4436357021331787,
				0.05999999865889549,
				-7.191712856292725
			],
			"min":[
				-2.459364652633667,
				-0.05999999865889549,
				-8.103713035583496
			],
			"type":"VEC3"
		},
		{
			"bufferView":1,
			"componentType":5126,
			"count":3854,
			"type":"VEC2"
		},
		{
			"bufferView":2,
			"componentType":5126,
			"count":3854,
			"type":"VEC3"
		},
		{
			"bufferView":3,
			"componentType":5123,
			"count":11280,
			"type":"SCALAR"
		}
	],
	"bufferViews":[
		{
			"buffer":0,
			"byteLength":46248,
			"byteOffset":0,
			"target":34962
		},
		{
			"buffer":0,
			"byteLength":30832,
			"byteOffset":46248,
			"target":34962
		},
		{
			"buffer":0,
			"byteLength":46248,
			"byteOffset":77080,
			"target":34962
		},
		{
			"buffer":0,
			"byteLength":22560,
			"byteOffset":123328,
			"target":34963
		}
	],
	"buffers":[
		{
			"byteLength":145888,
			"uri":"data:application/octet-stream;base64,"
		}
	]
}
