{
	"asset":{
		"generator":"Khronos glTF Blender I/O v3.5.30",
		"version":"2.0"
	},
	"scene":0,
	"scenes":[
		{
			"name":"Scene",
			"nodes":[
				0
			]
		}
	],
	"nodes":[
		{
			"mesh":0,
			"name":"Aviators_Plastic.001_0",
			"translation":[
				-0.08301671594381332,
				1.2964165210723877,
				-0.003997026011347771
			]
		}
	],
	"materials":[
		{
			"doubleSided":true,
			"name":"Material.001",
			"pbrMetallicRoughness":{
				"baseColorTexture":{
					"index":0
				},
				"metallicFactor":0,
				"roughnessFactor":0.5
			}
		}
	],
	"meshes":[
		{
			"name":"Aviators_Plastic.001_0",
			"primitives":[
				{
					"attributes":{
						"POSITION":0,
						"TEXCOORD_0":1,
						"NORMAL":2
					},
					"indices":3,
					"material":0
				}
			]
		}
	],
	"textures":[
		{
			"sampler":0,
			"source":0
		}
	],
	"images":[
		{
			"bufferView":4,
			"mimeType":"image/png",
			"name":"Aviators_Plastic"
		}
	],
	"accessors":[
		{
			"bufferView":0,
			"componentType":5126,
			"count":4508,
			"max":[
				0.26512566208839417,
				0.04685932397842407,
				0.19091904163360596
			],
			"min":[
				-0.02725883573293686,
				-0.06250686198472977,
				-0.23322749137878418
			],
			"type":"VEC3"
		},
		{
			"bufferView":1,
			"componentType":5126,
			"count":4508,
			"type":"VEC2"
		},
		{
			"bufferView":2,
			"componentType":5126,
			"count":4508,
			"type":"VEC3"
		},
		{
			"bufferView":3,
			"componentType":5123,
			"count":8856,
			"type":"SCALAR"
		}
	],
	"bufferViews":[
		{
			"buffer":0,
			"byteLength":54096,
			"byteOffset":0,
			"target":34962
		},
		{
			"buffer":0,
			"byteLength":36064,
			"byteOffset":54096,
			"target":34962
		},
		{
			"buffer":0,
			"byteLength":54096,
			"byteOffset":90160,
			"target":34962
		},
		{
			"buffer":0,
			"byteLength":17712,
			"byteOffset":144256,
			"target":34963
		},
		{
			"buffer":0,
			"byteLength":81689,
			"byteOffset":161968
		}
	],
	"samplers":[
		{
			"magFilter":9729,
			"minFilter":9987
		}
	],
	"buffers":[
		{
			"byteLength":243660,
			"uri":"data:application/octet-stream;base64,"
		}
	]
}
