{
	"asset":{
		"generator":"Khronos glTF Blender I/O v3.5.30",
		"version":"2.0"
	},
	"scene":0,
	"scenes":[
		{
			"name":"Scene",
			"nodes":[
				0
			]
		}
	],
	"nodes":[
		{
			"mesh":0,
			"name":"glassesround",
			"rotation":[
				0.5119481086730957,
				-0.5187831521034241,
				0.5077298879623413,
				0.4593295156955719
			],
			"scale":[
				0.12217994034290314,
				0.12217993289232254,
				0.12217994034290314
			],
			"translation":[
				-0.24019424617290497,
				0.031095504760742188,
				-0.041903525590896606
			]
		}
	],
	"meshes":[
		{
			"name":"Text.008",
			"primitives":[
				{
					"attributes":{
						"POSITION":0,
						"TEXCOORD_0":1,
						"NORMAL":2
					},
					"indices":3
				}
			]
		}
	],
	"accessors":[
		{
			"bufferView":0,
			"componentType":5126,
			"count":5144,
			"max":[
				2.499452590942383,
				0.05999999865889549,
				-9.467724800109863
			],
			"min":[
				-2.884547710418701,
				-0.05999999865889549,
				-10.379724502563477
			],
			"type":"VEC3"
		},
		{
			"bufferView":1,
			"componentType":5126,
			"count":5144,
			"type":"VEC2"
		},
		{
			"bufferView":2,
			"componentType":5126,
			"count":5144,
			"type":"VEC3"
		},
		{
			"bufferView":3,
			"componentType":5123,
			"count":15252,
			"type":"SCALAR"
		}
	],
	"bufferViews":[
		{
			"buffer":0,
			"byteLength":61728,
			"byteOffset":0,
			"target":34962
		},
		{
			"buffer":0,
			"byteLength":41152,
			"byteOffset":61728,
			"target":34962
		},
		{
			"buffer":0,
			"byteLength":61728,
			"byteOffset":102880,
			"target":34962
		},
		{
			"buffer":0,
			"byteLength":30504,
			"byteOffset":164608,
			"target":34963
		}
	],
	"buffers":[
		{
			"byteLength":195112,
			"uri":"data:application/octet-stream;base64,"
		}
	]
}
