{
	"asset":{
		"generator":"Khronos glTF Blender I/O v3.5.30",
		"version":"2.0"
	},
	"extensionsUsed":[
		"KHR_materials_specular",
		"KHR_materials_ior"
	],
	"scene":0,
	"scenes":[
		{
			"name":"Scene",
			"nodes":[
				0
			]
		}
	],
	"nodes":[
		{
			"mesh":0,
			"name":"Tshirt"
		}
	],
	"materials":[
		{
			"doubleSided":true,
			"extensions":{
				"KHR_materials_specular":{
					"specularColorFactor":[
						0,
						0,
						0
					]
				},
				"KHR_materials_ior":{
					"ior":1.4500000476837158
				}
			},
			"name":"Material.001",
			"pbrMetallicRoughness":{
				"baseColorTexture":{
					"index":0
				},
				"metallicFactor":0
			}
		}
	],
	"meshes":[
		{
			"name":"Mesh",
			"primitives":[
				{
					"attributes":{
						"POSITION":0,
						"TEXCOORD_0":1,
						"NORMAL":2
					},
					"indices":3,
					"material":0
				}
			]
		}
	],
	"textures":[
		{
			"sampler":0,
			"source":0
		}
	],
	"images":[
		{
			"bufferView":4,
			"mimeType":"image/png",
			"name":"shirt_punkrock"
		}
	],
	"accessors":[
		{
			"bufferView":0,
			"componentType":5126,
			"count":457,
			"max":[
				0.12721234560012817,
				0.924303412437439,
				0.19751913845539093
			],
			"min":[
				-0.11256924271583557,
				0.5663928985595703,
				-0.19654162228107452
			],
			"type":"VEC3"
		},
		{
			"bufferView":1,
			"componentType":5126,
			"count":457,
			"type":"VEC2"
		},
		{
			"bufferView":2,
			"componentType":5126,
			"count":457,
			"type":"VEC3"
		},
		{
			"bufferView":3,
			"componentType":5123,
			"count":2130,
			"type":"SCALAR"
		}
	],
	"bufferViews":[
		{
			"buffer":0,
			"byteLength":5484,
			"byteOffset":0,
			"target":34962
		},
		{
			"buffer":0,
			"byteLength":3656,
			"byteOffset":5484,
			"target":34962
		},
		{
			"buffer":0,
			"byteLength":5484,
			"byteOffset":9140,
			"target":34962
		},
		{
			"buffer":0,
			"byteLength":4260,
			"byteOffset":14624,
			"target":34963
		},
		{
			"buffer":0,
			"byteLength":472698,
			"byteOffset":18884
		}
	],
	"samplers":[
		{
			"magFilter":9729,
			"minFilter":9987
		}
	],
	"buffers":[
		{
			"byteLength":491584,
			"uri":"data:application/octet-stream;base64,"
		}
	]
}
