{
	"asset":{
		"generator":"Khronos glTF Blender I/O v3.5.30",
		"version":"2.0"
	},
	"extensionsUsed":[
		"KHR_materials_specular",
		"KHR_materials_ior"
	],
	"scene":0,
	"scenes":[
		{
			"name":"Scene",
			"nodes":[
				0
			]
		}
	],
	"nodes":[
		{
			"mesh":0,
			"name":"RefTank",
			"rotation":[
				0,
				-0.7071067094802856,
				0,
				0.7071068286895752
			],
			"scale":[
				0.07349999248981476,
				0.07349999248981476,
				0.07349999248981476
			],
			"translation":[
				-0.004255611449480057,
				-0.0004211999475955963,
				-0.002052065683528781
			]
		}
	],
	"materials":[
		{
			"doubleSided":true,
			"emissiveFactor":[
				1,
				1,
				1
			],
			"emissiveTexture":{
				"index":0
			},
			"extensions":{
				"KHR_materials_specular":{
					"specularColorFactor":[
						0,
						0,
						0
					]
				},
				"KHR_materials_ior":{
					"ior":1.4500000476837158
				}
			},
			"name":"01 - Default",
			"pbrMetallicRoughness":{
				"baseColorTexture":{
					"index":1
				},
				"roughnessFactor":0.858578622341156
			}
		}
	],
	"meshes":[
		{
			"name":"Mesh.005",
			"primitives":[
				{
					"attributes":{
						"POSITION":0,
						"TEXCOORD_0":1,
						"NORMAL":2
					},
					"indices":3,
					"material":0
				}
			]
		}
	],
	"textures":[
		{
			"sampler":0,
			"source":0
		},
		{
			"sampler":0,
			"source":0
		}
	],
	"images":[
		{
			"bufferView":4,
			"mimeType":"image/png",
			"name":"tank_pabst"
		}
	],
	"accessors":[
		{
			"bufferView":0,
			"componentType":5126,
			"count":283,
			"max":[
				2.281752109527588,
				12.579638481140137,
				1.5160548686981201
			],
			"min":[
				-2.281752109527588,
				7.873477935791016,
				-1.858818769454956
			],
			"type":"VEC3"
		},
		{
			"bufferView":1,
			"componentType":5126,
			"count":283,
			"type":"VEC2"
		},
		{
			"bufferView":2,
			"componentType":5126,
			"count":283,
			"type":"VEC3"
		},
		{
			"bufferView":3,
			"componentType":5123,
			"count":1290,
			"type":"SCALAR"
		}
	],
	"bufferViews":[
		{
			"buffer":0,
			"byteLength":3396,
			"byteOffset":0,
			"target":34962
		},
		{
			"buffer":0,
			"byteLength":2264,
			"byteOffset":3396,
			"target":34962
		},
		{
			"buffer":0,
			"byteLength":3396,
			"byteOffset":5660,
			"target":34962
		},
		{
			"buffer":0,
			"byteLength":2580,
			"byteOffset":9056,
			"target":34963
		},
		{
			"buffer":0,
			"byteLength":177836,
			"byteOffset":11636
		}
	],
	"samplers":[
		{
			"magFilter":9729,
			"minFilter":9987
		}
	],
	"buffers":[
		{
			"byteLength":189472,
			"uri":"data:application/octet-stream;base64,"
		}
	]
}
