{
	"asset":{
		"generator":"Khronos glTF Blender I/O v3.5.30",
		"version":"2.0"
	},
	"scene":0,
	"scenes":[
		{
			"name":"Scene",
			"nodes":[
				0
			]
		}
	],
	"nodes":[
		{
			"mesh":0,
			"name":"MiiladyShoes"
		}
	],
	"materials":[
		{
			"doubleSided":true,
			"emissiveFactor":[
				1,
				1,
				1
			],
			"emissiveTexture":{
				"index":0
			},
			"name":"Milady_model.001",
			"pbrMetallicRoughness":{
				"baseColorTexture":{
					"index":1
				},
				"metallicFactor":0,
				"roughnessFactor":0.5
			}
		},
		{
			"doubleSided":true,
			"emissiveFactor":[
				1,
				1,
				1
			],
			"emissiveTexture":{
				"index":2
			},
			"name":"Milady_clothing",
			"pbrMetallicRoughness":{
				"baseColorTexture":{
					"index":3
				},
				"metallicFactor":0,
				"roughnessFactor":0.5
			}
		}
	],
	"meshes":[
		{
			"name":"Mesh.003",
			"primitives":[
				{
					"attributes":{
						"POSITION":0,
						"TEXCOORD_0":1,
						"NORMAL":2
					},
					"indices":3,
					"material":0
				},
				{
					"attributes":{
						"POSITION":4,
						"TEXCOORD_0":5,
						"NORMAL":6
					},
					"indices":7,
					"material":1
				}
			]
		}
	],
	"textures":[
		{
			"sampler":0,
			"source":0
		},
		{
			"sampler":0,
			"source":0
		},
		{
			"sampler":0,
			"source":1
		},
		{
			"sampler":0,
			"source":1
		}
	],
	"images":[
		{
			"bufferView":4,
			"mimeType":"image/jpeg",
			"name":"Milady_Model_Fair"
		},
		{
			"bufferView":9,
			"mimeType":"image/jpeg",
			"name":"Milady_clothing"
		}
	],
	"accessors":[
		{
			"bufferView":0,
			"componentType":5126,
			"count":32,
			"max":[
				0.08050954341888428,
				0.02752077206969261,
				0.1508752554655075
			],
			"min":[
				-0.09433857351541519,
				0.018556205555796623,
				-0.15412579476833344
			],
			"type":"VEC3"
		},
		{
			"bufferView":1,
			"componentType":5126,
			"count":32,
			"type":"VEC2"
		},
		{
			"bufferView":2,
			"componentType":5126,
			"count":32,
			"type":"VEC3"
		},
		{
			"bufferView":3,
			"componentType":5123,
			"count":84,
			"type":"SCALAR"
		},
		{
			"bufferView":5,
			"componentType":5126,
			"count":290,
			"max":[
				0.08868098258972168,
				0.07704559713602066,
				0.15622107684612274
			],
			"min":[
				-0.10126243531703949,
				-0.003258021082729101,
				-0.1595471054315567
			],
			"type":"VEC3"
		},
		{
			"bufferView":6,
			"componentType":5126,
			"count":290,
			"type":"VEC2"
		},
		{
			"bufferView":7,
			"componentType":5126,
			"count":290,
			"type":"VEC3"
		},
		{
			"bufferView":8,
			"componentType":5123,
			"count":1296,
			"type":"SCALAR"
		}
	],
	"bufferViews":[
		{
			"buffer":0,
			"byteLength":384,
			"byteOffset":0,
			"target":34962
		},
		{
			"buffer":0,
			"byteLength":256,
			"byteOffset":384,
			"target":34962
		},
		{
			"buffer":0,
			"byteLength":384,
			"byteOffset":640,
			"target":34962
		},
		{
			"buffer":0,
			"byteLength":168,
			"byteOffset":1024,
			"target":34963
		},
		{
			"buffer":0,
			"byteLength":120580,
			"byteOffset":1192
		},
		{
			"buffer":0,
			"byteLength":3480,
			"byteOffset":121772,
			"target":34962
		},
		{
			"buffer":0,
			"byteLength":2320,
			"byteOffset":125252,
			"target":34962
		},
		{
			"buffer":0,
			"byteLength":3480,
			"byteOffset":127572,
			"target":34962
		},
		{
			"buffer":0,
			"byteLength":2592,
			"byteOffset":131052,
			"target":34963
		},
		{
			"buffer":0,
			"byteLength":168605,
			"byteOffset":133644
		}
	],
	"samplers":[
		{
			"magFilter":9729,
			"minFilter":9987
		}
	],
	"buffers":[
		{
			"byteLength":302252,
			"uri":"data:application/octet-stream;base64,"
		}
	]
}
