{
	"asset":{
		"generator":"Khronos glTF Blender I/O v3.5.30",
		"version":"2.0"
	},
	"scene":0,
	"scenes":[
		{
			"name":"Scene",
			"nodes":[
				0
			]
		}
	],
	"nodes":[
		{
			"mesh":0,
			"name":"sportyskkirt",
			"rotation":[
				0.5,
				-0.5,
				0.5,
				0.5
			],
			"scale":[
				0.12217994034290314,
				0.12217994034290314,
				0.12217994034290314
			],
			"translation":[
				-0.206269770860672,
				0.03822225332260132,
				-0.03177690505981445
			]
		}
	],
	"meshes":[
		{
			"name":"Text.005",
			"primitives":[
				{
					"attributes":{
						"POSITION":0,
						"TEXCOORD_0":1,
						"NORMAL":2
					},
					"indices":3
				}
			]
		}
	],
	"accessors":[
		{
			"bufferView":0,
			"componentType":5126,
			"count":3024,
			"max":[
				2.615635633468628,
				0.05999999865889549,
				-4.760263919830322
			],
			"min":[
				-2.4753646850585938,
				-0.05999999865889549,
				-5.672264099121094
			],
			"type":"VEC3"
		},
		{
			"bufferView":1,
			"componentType":5126,
			"count":3024,
			"type":"VEC2"
		},
		{
			"bufferView":2,
			"componentType":5126,
			"count":3024,
			"type":"VEC3"
		},
		{
			"bufferView":3,
			"componentType":5123,
			"count":8808,
			"type":"SCALAR"
		}
	],
	"bufferViews":[
		{
			"buffer":0,
			"byteLength":36288,
			"byteOffset":0,
			"target":34962
		},
		{
			"buffer":0,
			"byteLength":24192,
			"byteOffset":36288,
			"target":34962
		},
		{
			"buffer":0,
			"byteLength":36288,
			"byteOffset":60480,
			"target":34962
		},
		{
			"buffer":0,
			"byteLength":17616,
			"byteOffset":96768,
			"target":34963
		}
	],
	"buffers":[
		{
			"byteLength":114384,
			"uri":"data:application/octet-stream;base64,"
		}
	]
}
