{
	"asset":{
		"generator":"Khronos glTF Blender I/O v3.5.30",
		"version":"2.0"
	},
	"scene":0,
	"scenes":[
		{
			"name":"Scene",
			"nodes":[
				0
			]
		}
	],
	"nodes":[
		{
			"mesh":0,
			"name":"glassessquare",
			"rotation":[
				0.49619197845458984,
				-0.4793018698692322,
				0.5297574996948242,
				0.4933764636516571
			],
			"scale":[
				0.12217994034290314,
				0.12217994034290314,
				0.12217994034290314
			],
			"translation":[
				-0.21285685896873474,
				0.03007495403289795,
				-0.03453946113586426
			]
		}
	],
	"meshes":[
		{
			"name":"Text.009",
			"primitives":[
				{
					"attributes":{
						"POSITION":0,
						"TEXCOORD_0":1,
						"NORMAL":2
					},
					"indices":3
				}
			]
		}
	],
	"accessors":[
		{
			"bufferView":0,
			"componentType":5126,
			"count":6164,
			"max":[
				3.7878122329711914,
				0.05999999865889549,
				-9.74746322631836
			],
			"min":[
				-1.851187825202942,
				-0.05999999865889549,
				-10.659462928771973
			],
			"type":"VEC3"
		},
		{
			"bufferView":1,
			"componentType":5126,
			"count":6164,
			"type":"VEC2"
		},
		{
			"bufferView":2,
			"componentType":5126,
			"count":6164,
			"type":"VEC3"
		},
		{
			"bufferView":3,
			"componentType":5123,
			"count":18300,
			"type":"SCALAR"
		}
	],
	"bufferViews":[
		{
			"buffer":0,
			"byteLength":73968,
			"byteOffset":0,
			"target":34962
		},
		{
			"buffer":0,
			"byteLength":49312,
			"byteOffset":73968,
			"target":34962
		},
		{
			"buffer":0,
			"byteLength":73968,
			"byteOffset":123280,
			"target":34962
		},
		{
			"buffer":0,
			"byteLength":36600,
			"byteOffset":197248,
			"target":34963
		}
	],
	"buffers":[
		{
			"byteLength":233848,
			"uri":"data:application/octet-stream;base64,"
		}
	]
}
